<?xml version="1.0" encoding="UTF-8" standalone="no"?>
<svg
   width="210mm"
   height="297mm"
   viewBox="0 0 210 297"
   version="1.1"
   id="svg8"
   inkscape:version="1.4.3 (0d15f75042, 2025-12-25)"
   sodipodi:docname="FirstTest.svg"
   xmlns:inkscape="http://www.inkscape.org/namespaces/inkscape"
   xmlns:sodipodi="http://sodipodi.sourceforge.net/DTD/sodipodi-0.dtd"
   xmlns="http://www.w3.org/2000/svg"
   xmlns:svg="http://www.w3.org/2000/svg"
   xmlns:rdf="http://www.w3.org/1999/02/22-rdf-syntax-ns#"
   xmlns:cc="http://creativecommons.org/ns#"
   xmlns:dc="http://purl.org/dc/elements/1.1/">
  <defs
     id="defs2" />
  <sodipodi:namedview
     id="base"
     pagecolor="#ffffff"
     bordercolor="#666666"
     borderopacity="1.0"
     inkscape:pageopacity="0.0"
     inkscape:pageshadow="2"
     inkscape:zoom="0.98994949"
     inkscape:cx="382.84781"
     inkscape:cy="535.38085"
     inkscape:document-units="mm"
     inkscape:current-layer="layer1"
     inkscape:document-rotation="0"
     showgrid="false"
     inkscape:window-width="1267"
     inkscape:window-height="695"
     inkscape:window-x="0"
     inkscape:window-y="0"
     inkscape:window-maximized="1"
     inkscape:showpageshadow="2"
     inkscape:pagecheckerboard="0"
     inkscape:deskcolor="#d1d1d1" />
  <metadata
     id="metadata5">
    <rdf:RDF>
      <cc:Work
         rdf:about="">
        <dc:format>image/svg+xml</dc:format>
        <dc:type
           rdf:resource="http://purl.org/dc/dcmitype/StillImage" />
        <dc:title />
      </cc:Work>
    </rdf:RDF>
  </metadata>
  <g
     inkscape:label="Layer 1"
     inkscape:groupmode="layer"
     id="layer1">
    <path
       style="fill:#000000;stroke-width:0.264583"
       id="path7"
       d="m 26.708827,36.242259 c -1.183846,-0.617077 -2.533341,-0.786077 -3.84963,-0.592394 -0.350334,0.05155 -0.691938,0.15095 -1.037907,0.226423 -0.330964,0.134577 -0.675997,0.238731 -0.992893,0.40373 -1.116435,0.581308 -2.23187,1.701636 -2.137318,3.067794 0.02094,0.302572 0.155995,0.586192 0.233993,0.879289 0.201252,0.255842 0.358767,0.553194 0.603757,0.767525 0.279623,0.244631 0.607065,0.437502 0.946445,0.588679 1.263705,0.562917 1.786774,0.73792 3.099451,0.602443 1.257848,-0.12982 1.736691,-0.398822 2.909466,-0.842351 0.428548,-0.241726 0.879819,-0.446985 1.285642,-0.725178 1.025493,-0.702974 2.417014,-2.035281 2.156256,-3.450603 -0.04784,-0.259691 -0.21717,-0.481404 -0.325755,-0.722106 -0.20987,-0.195112 -0.389662,-0.428686 -0.62961,-0.585335 -1.213853,-0.792457 -2.666893,-1.212506 -4.122169,-1.039649 -0.245817,0.0292 -0.481639,0.114618 -0.722459,0.171926 -0.147587,0.143026 -0.337796,0.252381 -0.44276,0.429073 -0.746524,1.256667 1.133967,2.23588 1.950153,2.572138 0.353519,0.145648 0.744719,0.173636 1.117079,0.260454 0.445733,0.01315 0.891529,0.05461 1.337199,0.03945 1.921893,-0.06534 4.173781,-0.539662 5.987439,-1.175824 0.413303,-0.14497 0.813702,-0.32439 1.220554,-0.486584 1.43704,-0.556869 2.591104,-1.489753 3.488198,-2.724846 0.273854,-0.374068 0.548029,-0.755052 0.895191,-1.065581 0.264435,0.02238 -0.29075,-0.184073 -0.447429,-0.160477 -0.08775,0.0132 -0.05877,0.167486 -0.09079,0.250245 -0.217302,0.561721 -0.395573,1.121455 -0.56188,1.701075 -0.345112,1.378604 -0.565237,2.663791 1.110991,3.204176 0.230325,0.07425 0.483923,0.0083 0.725884,0.01246 0.945301,-0.28211 1.824392,-0.721448 2.667331,-1.227111 0.458525,-0.275061 0.955881,-0.537192 1.243253,-1.000437 -0.192299,-0.11334 -0.357407,-0.299406 -0.576897,-0.340017 -0.117187,-0.0217 -1.023896,0.436587 -1.091203,0.474287 -0.947266,0.530582 -1.675215,1.152663 -2.462194,1.891895 -0.972735,1.066906 -2.507234,2.883734 -2.098648,4.482095 0.06118,0.23935 0.227597,0.438549 0.341397,0.657826 1.868233,1.592942 3.405931,1.236755 5.485,0.441264 1.638001,-0.751356 2.83052,-2.104176 4.090845,-3.343437 1.404236,-1.417013 2.925193,-2.732696 4.650531,-3.742393 0.682744,-0.337482 1.412076,-0.665274 2.184447,-0.704411 0.295818,-0.01445 1.371976,-0.06126 -0.854723,-0.27835 -0.09591,-0.0093 -1.259808,0.321937 -1.304055,0.333788 -1.666949,0.446445 -0.161446,0.02376 -1.952693,0.536752 -1.136748,0.432128 -3.342765,0.941994 -4.086466,1.99348 -0.07933,0.112167 -0.08366,0.261731 -0.125492,0.392594 0.09234,0.114059 0.147188,0.273759 0.277014,0.342175 1.074282,0.566115 1.352793,0.590682 2.479225,0.433686 0.488577,-0.0681 0.971846,-0.174236 1.450467,-0.293682 1.312534,-0.327562 1.859761,-0.5631 3.125525,-1.022636 1.154861,-0.408464 2.234832,-0.991298 3.367773,-1.451094 0.183798,-0.07459 0.367435,-0.153625 0.559946,-0.201438 0.06704,-0.01664 0.275894,0.01527 0.206946,0.01098 -0.24089,-0.01498 -0.481859,-0.02872 -0.722789,-0.04307 -0.176019,0.222456 -0.341958,0.453274 -0.528055,0.667369 -0.735333,0.84596 -1.403194,1.490049 -2.227466,2.278814 -1.882519,1.801426 -3.838768,3.509193 -5.815357,5.205793 -1.807786,1.574195 -3.687662,3.066042 -5.451006,4.691322 -0.327213,0.301593 -0.655074,0.603822 -0.957726,0.930053 -0.123237,0.132837 -0.44673,0.317421 -0.315674,0.442547 0.276307,0.263803 0.735631,0.206386 1.103447,0.309576 0.493057,-0.297587 0.994167,-0.582221 1.479169,-0.892762 2.346823,-1.50263 4.604867,-3.141814 6.900461,-4.719913 2.115118,-1.454034 2.367753,-1.60573 4.44946,-2.975176 1.550152,-0.961512 3.113723,-1.900812 4.658194,-2.87147 0.325125,-0.204332 0.661045,-0.392803 0.973209,-0.616437 0.435874,-0.312261 0.812082,-0.692544 1.198202,-1.060667 0,0 -0.01691,-0.01069 -0.01691,-0.01069 v 0 c -0.22058,0.13062 -0.430921,0.280323 -0.661736,0.391859 -2.309868,1.116179 0.493467,-0.431536 -2.055606,0.931584 -1.623589,0.868217 -3.17786,1.865908 -4.754877,2.813116 -2.151994,1.425324 -2.242992,1.472282 -4.438902,2.984172 -2.295091,1.580179 -4.555685,3.217328 -6.912816,4.705641 -0.481102,0.303774 -0.978593,0.58079 -1.467887,0.871183 0.06707,0.174419 0.01656,0.494551 0.201205,0.523251 0.173389,0.02695 0.158538,-0.317408 0.274206,-0.449361 0.291677,-0.332742 0.617816,-0.63405 0.940705,-0.936598 1.745067,-1.635144 3.61727,-3.128103 5.397971,-4.723003 1.703499,-1.485612 2.474042,-2.142019 4.127931,-3.643765 1.353415,-1.228915 2.732556,-2.464181 3.946636,-3.835503 0.191789,-0.216625 0.363773,-0.450006 0.545661,-0.67501 -0.138438,-0.228886 -0.233897,-0.490085 -0.415316,-0.686658 -0.06114,-0.06624 -0.541954,0.165558 -0.725792,0.249709 -1.102024,0.504446 -2.178182,1.068596 -3.323455,1.475033 -1.507207,0.540578 -3.014715,1.086557 -4.618778,1.264725 -0.390163,0.04334 -0.78916,-0.02884 -1.177306,0.02988 -0.07456,0.01127 -0.07464,0.1861 -0.148471,0.170709 -0.126363,-0.02633 -0.190558,-0.174159 -0.285835,-0.261239 0.03987,-0.117768 0.04594,-0.253145 0.119605,-0.353303 0.77017,-1.047126 2.89923,-1.530146 4.04631,-1.978417 0.881375,-0.262575 1.765157,-0.517662 2.653168,-0.757033 0.186147,-0.05018 0.459893,0.02304 0.560871,-0.141195 0.08844,-0.14383 -0.12256,-0.314659 -0.183843,-0.471988 -0.0061,0.0054 -0.01217,0.01077 -0.01826,0.01614 -0.720498,0.205758 -1.445858,0.405527 -2.099289,0.787503 -1.723218,1.023758 -3.23869,2.35236 -4.67996,3.737927 -1.289379,1.212115 -2.539334,2.515802 -4.174882,3.261215 -0.86365,0.321196 -1.717749,0.605316 -2.652014,0.629825 -0.29749,0.0078 -0.593074,-0.067 -0.890625,-0.06198 -0.06753,0.0011 -0.125031,0.109008 -0.186105,0.08016 -0.222326,-0.105016 -0.391845,-0.297135 -0.587766,-0.445701 -0.117639,-0.209537 -0.287989,-0.397248 -0.35292,-0.628611 -0.438589,-1.562756 1.100677,-3.394204 2.035537,-4.45058 0.754954,-0.723164 1.500312,-1.374304 2.407312,-1.904561 0.206668,-0.120824 0.422121,-0.226607 0.639648,-0.326569 0.123148,-0.05659 0.352412,-0.0099 0.380839,-0.142386 0.027,-0.125865 -0.198308,-0.164184 -0.297463,-0.246274 -0.149225,0.496774 -0.608378,0.821163 -1.02275,1.106649 -0.829638,0.571582 -1.733436,1.008113 -2.737717,1.156277 -0.260797,-0.0258 -0.522547,-0.0433 -0.782389,-0.07739 -0.04679,-0.0061 -0.105505,-0.006 -0.134908,-0.04294 -0.604126,-0.758352 -0.270249,-1.73472 -0.07283,-2.579675 0.166812,-0.577895 0.357439,-1.134385 0.557924,-1.700162 0.03234,-0.09128 0.135649,-0.194588 0.08574,-0.277574 -0.358706,-0.596434 -0.364408,-0.565528 -0.545497,-0.385347 -0.257564,0.383614 -0.564129,0.731282 -0.822672,1.114388 -0.887425,1.273405 -1.974244,2.148811 -3.43228,2.732436 -0.409221,0.159272 -0.811226,0.33849 -1.227659,0.477811 -1.82471,0.610476 -4.147918,1.079048 -6.072137,1.097585 -0.458333,0.0044 -0.915189,-0.05282 -1.372782,-0.07923 -0.379739,-0.09874 -0.763789,-0.182182 -1.139218,-0.29622 -0.116248,-0.03531 -0.237871,-0.07369 -0.331894,-0.15063 -0.488995,-0.400166 -0.974675,-1.043694 -0.59003,-1.700844 0.09781,-0.167109 0.279383,-0.268174 0.419074,-0.40226 0.23659,-0.05465 0.46853,-0.136297 0.70977,-0.163943 0.929607,-0.106535 1.827203,0.07976 2.715306,0.327032 0.113945,0.03173 0.239863,0.04293 0.33742,0.109808 0.24048,0.164862 0.440013,0.382664 0.660019,0.573995 0.120571,0.236895 0.300532,0.452006 0.361709,0.710679 0.336103,1.421114 -1.015637,2.746644 -2.050563,3.453563 -0.40518,0.276765 -0.857223,0.477751 -1.285837,0.716624 -1.187003,0.425435 -1.68152,0.693254 -2.952123,0.790758 -0.470722,0.03612 -0.943833,-0.02731 -1.415582,-0.04566 -0.235301,-0.0092 -0.484169,0.04358 -0.705476,-0.03688 -0.861023,-0.313044 -0.974971,-0.625856 -1.503257,-1.282695 -0.07459,-0.281464 -0.204753,-0.553834 -0.223771,-0.844391 -0.08768,-1.33949 1.016049,-2.432616 2.111871,-2.99512 0.314679,-0.161531 0.656873,-0.262639 0.98531,-0.393957 0.344162,-0.07263 0.684152,-0.16904 1.032486,-0.217887 1.299751,-0.182269 2.628516,-0.0083 3.795317,0.601874 z" />
    <path
       style="fill:#000000;stroke-width:0.264583"
       id="path8"
       d="m 73.141048,32.725786 c -0.58197,-1.182749 -1.350809,-1.839283 -2.617436,-2.295581 -0.19187,-0.06912 -0.405622,-0.04288 -0.60843,-0.06433 -0.205608,0.02838 -0.417862,0.02601 -0.616821,0.08515 -0.915447,0.272039 -1.625737,1.021361 -1.779325,1.97303 -0.04102,0.254148 -0.0083,0.514805 -0.01249,0.772207 0.226224,1.246106 1.090239,2.039075 2.047586,2.780274 0.243393,0.188439 0.514924,0.342117 0.741148,0.550857 0.208458,0.192344 0.369962,0.430035 0.554943,0.645051 0.08049,0.258049 0.225038,0.504333 0.241474,0.774145 0.04376,0.71846 -0.310102,1.459878 -0.670856,2.041239 -0.941933,1.517941 -2.297621,2.668286 -3.618301,3.836715 -1.580973,1.198761 -3.248414,2.287511 -5.046681,3.133394 -0.5607,0.263747 -1.682531,0.736066 -2.35821,0.846117 -0.23395,0.0381 -0.474025,-0.0061 -0.711036,-0.0092 0.09871,0.02138 0.223782,0.134643 0.296121,0.06416 0.117131,-0.114123 0.0452,-0.331653 0.124952,-0.474424 0.145712,-0.260866 0.340813,-0.492752 0.539798,-0.715661 1.064175,-1.192139 2.366362,-2.162016 3.613097,-3.147401 2.790185,-2.05099 5.767821,-3.857993 8.896051,-5.34751 0.607999,-0.289502 1.230717,-0.547023 1.846077,-0.820534 2.838352,-1.172141 5.736003,-2.184781 8.579292,-3.343965 0,0 -0.01651,-0.0113 -0.01651,-0.0113 v 0 c -0.92129,0.183941 -1.46072,0.277019 -2.405126,0.538731 -2.299819,0.637326 -4.522732,1.529615 -6.724637,2.439848 -0.615431,0.274873 -1.238271,0.533725 -1.846291,0.824618 -3.125036,1.495105 -6.090687,3.317034 -8.872665,5.377942 -1.257141,0.986338 -2.567934,1.956674 -3.648646,3.145005 -0.207105,0.227729 -0.411361,0.463552 -0.565798,0.729826 -0.09474,0.163343 -0.273966,0.381995 -0.170773,0.540134 0.201986,0.309533 0.615738,0.40903 0.923605,0.613545 0.239196,-0.0034 0.482012,0.03151 0.717584,-0.01011 0.690515,-0.121971 1.784625,-0.582017 2.365182,-0.858208 1.797111,-0.854946 3.459168,-1.958808 5.045316,-3.154212 1.329565,-1.173758 2.693895,-2.328002 3.641764,-3.854513 0.373007,-0.600715 0.727284,-1.349603 0.691775,-2.088425 -0.01336,-0.277818 -0.155083,-0.534223 -0.232622,-0.801336 -0.185433,-0.220829 -0.345559,-0.465664 -0.5563,-0.662485 -0.224065,-0.209264 -0.495929,-0.360725 -0.739142,-0.547388 -0.938324,-0.720156 -1.793526,-1.482418 -2.025166,-2.699129 0.0021,-0.250131 -0.03193,-0.503248 0.0066,-0.750398 0.18556,-1.18863 1.197697,-1.904605 2.341449,-1.971725 0.197321,0.02532 0.394409,0.0994 0.591965,0.07597 0.05053,-0.006 -0.110029,-0.160375 -0.06405,-0.138571 0.701725,0.33277 1.117301,1.06208 1.492776,1.699713 z" />
    <path
       style="fill:#000000;stroke-width:0.264583"
       id="path9"
       d="m 73.705555,40.387664 c -1.211916,1.038532 -2.226331,2.306428 -2.835995,3.790944 -0.120348,0.293048 -0.203337,0.600078 -0.305009,0.900118 -0.151931,1.228162 0.02679,2.02247 1.45492,2.30577 0.378519,0.07509 1.25476,-0.42867 1.501878,-0.548669 2.717374,-1.875134 4.641583,-4.632643 6.635547,-7.21151 1.897591,-2.575933 4.128066,-4.922554 5.795261,-7.666077 0.282551,-0.464963 0.524245,-0.953556 0.786368,-1.430332 0.969447,-2.096299 1.655757,-4.316785 1.36166,-6.640499 -0.189945,-0.647121 -0.400622,-0.989772 -1.195491,-1.110299 -0.411094,-0.06234 -1.298395,1.244018 -1.409234,1.392517 -2.081327,3.421027 -3.308678,7.263066 -4.509815,11.057278 -0.696823,2.371122 -1.447411,4.74228 -1.780225,7.200368 -0.144862,1.069922 -0.23395,2.41957 -0.07064,3.513132 0.05906,0.395431 0.213934,0.770483 0.3209,1.155721 0.565764,0.806649 0.623787,1.164064 1.84872,1.34088 0.756923,0.109259 1.786914,-0.779272 2.220373,-1.141572 1.146191,-0.958014 1.620856,-1.578842 2.618081,-2.701086 1.445054,-1.800556 2.974438,-3.615952 3.925319,-5.745086 0.381098,-0.853326 0.535651,-1.530506 0.779338,-2.414423 0.171323,-0.993476 0.579099,-2.192364 -0.787839,-2.525281 -0.288068,-0.07016 -0.955985,0.613188 -1.027811,0.674857 -1.585212,1.899218 -2.750246,4.189835 -3.419907,6.572996 -0.150579,0.535879 -0.239543,1.087191 -0.359314,1.630788 -0.136039,1.548977 -0.222031,3.425502 1.01919,4.603726 0.577342,0.54804 1.361126,0.667094 2.087219,0.900626 0.25378,-0.07036 0.525642,-0.09359 0.761339,-0.211063 1.177745,-0.587021 1.754944,-2.073969 1.765614,-3.316592 0.0035,-0.406786 -0.08725,-0.808911 -0.130878,-1.213366 -0.597004,-1.779834 -0.214985,-0.892299 -1.176589,-2.649249 0,0 -0.01823,-0.0082 -0.01823,-0.0082 v 0 c 0.795128,1.673215 0.507492,0.831887 0.901539,2.510438 0.0076,0.382432 0.05708,0.766311 0.02296,1.147297 -0.109222,1.219944 -0.755089,2.607906 -1.931847,3.139162 -0.235291,0.106225 -0.501578,0.122487 -0.752366,0.18373 -0.314987,0.396092 -0.204785,0.40962 -0.894078,-0.210619 -1.270497,-1.14322 -1.196454,-3.030199 -1.08636,-4.571368 0.114347,-0.543806 0.19722,-1.095195 0.343045,-1.631418 0.643067,-2.364655 1.811065,-4.678489 3.392572,-6.549863 0.190209,-0.15929 0.360045,-0.346687 0.570627,-0.477867 0.123561,-0.07697 0.336092,-0.01376 0.41497,-0.136104 0.04977,-0.07721 -0.199192,-0.252744 -0.221705,-0.163685 -0.03724,0.147333 0.132413,0.278535 0.154667,0.428866 0.08438,0.569997 -0.04467,1.028242 -0.136829,1.595035 -0.252542,0.938856 -0.364162,1.489864 -0.77511,2.402078 -0.956672,2.123602 -2.477212,3.935259 -3.937431,5.72125 -1.020985,1.136959 -2.454436,2.851298 -3.857252,3.53727 -0.299596,0.146499 -0.651825,0.141716 -0.975987,0.220062 -0.07302,0.01765 -0.158538,0.117387 -0.214926,0.06776 -0.229032,-0.201578 -0.362831,-0.49062 -0.544248,-0.735931 -0.11207,-0.382561 -0.273474,-0.754009 -0.336206,-1.14768 -0.172993,-1.085567 -0.0874,-2.443718 0.05225,-3.506031 0.323146,-2.458167 1.067691,-4.829593 1.767377,-7.198442 1.204415,-3.783632 2.433595,-7.618714 4.537905,-11.016575 0.343363,-0.445841 0.576347,-0.852734 1.035968,-1.165997 0.106074,-0.0723 0.340265,-0.02752 0.352399,-0.155313 0.01344,-0.141608 -0.177078,-0.242294 -0.309793,-0.293482 -0.248695,-0.09592 0.988425,0.841017 0.372626,0.707533 0.335389,2.348362 -0.346091,4.493935 -1.313233,6.619753 -0.259942,0.475994 -0.499157,0.963909 -0.779827,1.427983 -1.660652,2.745811 -3.893183,5.089734 -5.791182,7.663069 -2.000909,2.563153 -3.943252,5.307655 -6.670884,7.152976 -0.273894,0.124909 -0.535773,0.280519 -0.821682,0.374732 -0.215847,0.07113 -0.476774,2.64e-4 -0.671618,0.117348 -0.07006,0.04206 0.180052,0.270115 0.121933,0.212672 -0.498496,-0.492726 -0.487889,-1.083543 -0.391829,-1.740975 0.100123,-0.297664 0.181604,-0.602263 0.300371,-0.892992 0.603189,-1.476558 1.614408,-2.737885 2.833703,-3.753408 z" />
    <path
       style="fill:#000000;stroke-width:0.264583"
       id="path10"
       d="m 21.137608,47.432444 c 0.512943,0.266742 1.004699,0.578945 1.53883,0.800229 1.292658,0.535533 3.321406,0.929153 4.578574,1.14636 1.37486,0.237538 2.755757,0.442759 4.140605,0.612646 4.664606,0.57223 6.872845,0.655722 11.716427,0.993767 12.452061,0.668271 24.922847,0.912455 37.376597,1.544971 2.25857,0.11471 4.515395,0.261583 6.77309,0.392371 7.869703,0.455216 15.711329,1.285029 23.575349,1.815844 4.1212,0.278175 5.85724,0.334444 9.91224,0.516601 3.34591,0.09874 6.69409,0.161518 10.04159,0.171384 0.0245,7.4e-5 2.25833,0.03724 2.68602,-0.113816 0.0755,-0.02667 0.0194,-0.158988 0.029,-0.238482 -0.17722,-0.04299 -0.35444,-0.08597 -0.53166,-0.128958 0,0 0.0159,0.01212 0.0159,0.01212 v 0 c 0.16635,0.03527 0.3327,0.07055 0.49905,0.105828 -1.07105,-0.08023 -2.17426,-0.02045 -3.24485,-0.03496 -3.36086,-0.04557 -6.722,-0.100981 -10.08167,-0.203269 -4.05862,-0.177924 -5.76822,-0.230852 -9.89419,-0.506084 -7.85184,-0.523775 -15.681778,-1.344711 -23.539575,-1.78792 -2.251866,-0.126145 -4.50292,-0.267737 -6.755598,-0.378436 -12.439261,-0.611277 -24.896241,-0.804881 -37.331123,-1.513641 -4.862947,-0.353751 -7.082253,-0.443 -11.765119,-1.03595 -2.148663,-0.272066 -4.871846,-0.695579 -7.036024,-1.250923 -0.694327,-0.178171 -1.355714,-0.468559 -2.0468,-0.659633 z" />
    <path
       style="fill:#000000;stroke-width:0.264583"
       id="path11"
       d="m 26.967995,60.062797 c -0.232365,0.617837 -0.38195,1.398577 0.106187,1.95103 0.3413,0.386262 0.904735,0.48932 1.352225,0.647387 0.238604,-0.02143 0.481568,-0.0141 0.715812,-0.06432 0.958186,-0.205391 1.94909,-0.799849 2.564963,-1.566032 0.111736,-0.139004 0.186153,-0.304263 0.279228,-0.456395 0.03238,-0.140973 0.09877,-0.278287 0.09713,-0.422921 -0.0071,-0.629801 -0.927886,-0.930791 -1.355619,-1.046353 -0.415285,-0.112199 -0.95254,0.103828 -1.323274,0.205814 -1.061212,0.508402 -2.392632,1.386634 -2.511716,2.698766 -0.01762,0.194059 0.04043,0.387609 0.06064,0.581417 0.09969,0.169965 0.199374,0.339931 0.299061,0.509899 0,0 0.01815,0.0084 0.01815,0.0084 v 0 c -0.0146,-0.125952 -0.0292,-0.251907 -0.0438,-0.377862 0.307869,-1.549665 1.268651,-2.435543 2.677088,-3.077755 0.239194,-0.06484 0.478388,-0.129686 0.717582,-0.19453 0.189119,5.29e-4 0.384641,0.05044 0.567357,0.0016 0.04775,-0.01275 -0.07604,-0.161047 -0.02918,-0.14536 0.474724,0.158912 0.540742,0.636911 0.468527,1.052751 -0.07949,0.156356 -0.136316,0.326491 -0.238485,0.469067 -0.564279,0.787452 -1.589675,1.37116 -2.528549,1.558784 -0.234336,0.04683 -0.476728,0.03399 -0.715094,0.05099 -0.09339,0.01 -0.192474,0.06368 -0.280152,0.03002 -0.933299,-0.358349 -0.868875,-1.471112 -0.566843,-2.227841 z" />
    <path
       style="fill:#000000;stroke-width:0.264583"
       id="path12"
       d="m 26.474602,83.232291 c -0.687904,0.918188 -1.278953,1.990822 -1.422524,3.149814 -0.02682,0.216535 -0.0047,0.436356 -0.0071,0.654537 0.04506,0.183832 0.05883,0.378298 0.135166,0.551497 0.28638,0.649793 1.078206,1.06462 1.771568,0.925282 0.500949,-0.100671 0.806125,-0.328025 1.240959,-0.580043 0.666719,-0.587092 1.770502,-1.385567 1.652889,-2.419083 -0.01132,-0.09958 -0.06573,-0.189351 -0.09859,-0.28403 -0.805641,-0.680685 -1.584584,-0.706982 -2.186609,0.162113 -0.104775,0.151252 -0.166167,0.32834 -0.249249,0.492509 -0.130013,0.711668 -0.14225,0.363172 0.02368,1.045866 0,0 0.01773,0.0092 0.01773,0.0092 v 0 c 0.287454,-0.471178 0.13607,-0.215241 0.450614,-0.769882 0.23849,-0.33727 0.340506,-0.53889 0.672941,-0.790321 0.109017,-0.08245 0.232889,-0.146373 0.360411,-0.195583 0.110886,-0.04279 0.320011,0.03774 0.347982,-0.07778 0.03016,-0.124576 -0.241871,-0.155874 -0.260707,-0.282659 -0.01349,-0.09085 0.15938,0.09133 0.239067,0.136996 0.04309,0.09025 0.108619,0.172899 0.129267,0.270756 0.209199,0.991404 -0.867939,1.886545 -1.529688,2.422138 -0.441484,0.247986 -0.733309,0.468109 -1.244955,0.543693 -0.760599,0.112363 -0.719604,-0.09108 -0.898671,-0.866892 0.0062,-0.210923 -0.01071,-0.423817 0.01871,-0.632775 0.161326,-1.145947 0.730886,-2.210424 1.42871,-3.112875 z" />
    <path
       style="fill:#000000;stroke-width:0.264583"
       id="path13"
       d="m 35.015934,70.413199 c 1.416148,0.942724 2.368844,1.07092 3.77248,0.150627 0.0872,-0.118147 0.201773,-0.220334 0.261593,-0.354438 0.344369,-0.772007 -0.637,-1.220811 -1.168392,-1.423009 -0.124865,-0.04751 -0.265872,-0.02657 -0.398809,-0.03985 -0.752938,0.05908 -1.520711,0.330954 -1.879955,1.03537 -0.0062,0.39852 0.304218,0.580408 0.583073,0.808992 0,0 0.0185,0.0076 0.0185,0.0076 v 0 C 36.065221,70.403879 36.00514,70.30229 36.08937,70.064456 c 0.453083,-0.618588 1.107085,-0.931783 1.87589,-0.95948 0.125444,0.01455 0.260504,0.09396 0.37633,0.04364 0.0621,-0.02698 -0.196186,-0.185706 -0.141639,-0.145592 0.49122,0.361241 0.58212,0.820023 0.192598,1.306848 -0.517102,0.338942 -0.987311,0.58419 -1.626627,0.599697 -0.218627,0.0053 -0.434699,-0.05383 -0.653293,-0.06033 -0.0532,-0.0016 -0.10592,0.05565 -0.155509,0.0363 -0.159072,-0.06206 -0.291269,-0.178289 -0.436903,-0.267433 z" />
    <path
       style="fill:#000000;stroke-width:0.264583"
       id="path14"
       d="m 42.983433,75.244229 c 1.043823,1.126461 2.44884,1.841264 3.893399,2.311572 1.39265,0.415314 2.756053,0.164925 4.115972,-0.228325 0.803526,-0.31096 1.613799,-0.603925 2.421482,-0.903756 0.435004,-0.161486 1.060704,-0.418497 1.523051,-0.516951 0.23995,-0.0511 0.486984,-0.05994 0.730477,-0.0899 1.293635,0.0011 2.333427,0.720955 3.541871,1.1055 1.340893,0.391065 2.736361,0.340762 4.116007,0.299477 1.046387,-0.08056 2.069676,0.02971 3.056805,0.380293 0.795914,0.339109 1.595334,0.694153 2.443692,0.883306 0.530058,0.118182 0.937635,0.150517 1.472948,0.211143 0.529934,-0.0089 1.934702,0.254471 2.38265,-0.05849 0,0 -0.01606,-0.01193 -0.01606,-0.01193 v 0 c -0.135401,-0.04442 -0.266886,-0.103304 -0.406202,-0.133254 -0.785722,-0.168921 -1.630137,0.02246 -2.418718,-0.137396 -1.394338,-0.162118 -2.607929,-0.4719 -3.878138,-1.08031 -0.988094,-0.332774 -2.008235,-0.435451 -3.0495,-0.351131 -1.363392,0.04382 -2.743057,0.10259 -4.068794,-0.284776 -1.174414,-0.376169 -2.252236,-1.099434 -3.522821,-1.066869 -0.238443,0.03614 -0.480333,0.05421 -0.715328,0.108416 -1.330499,0.306893 -2.637128,1.029068 -3.952015,1.414478 -1.402887,0.380275 -2.81332,0.554024 -4.229661,0.109188 -1.126701,-0.38105 -2.10127,-0.802378 -2.899619,-1.731758 z" />
    <path
       style="fill:#000000;stroke-width:0.264583"
       id="path15"
       d="m 40.155659,81.476423 c 1.26116,0.271388 2.53852,0.512593 3.835624,0.430419 0.310531,-0.01966 0.618054,-0.07264 0.927082,-0.108958 1.603642,-0.239453 3.084084,-0.921655 4.642816,-1.325692 -0.273416,-0.145995 0.707797,0.02029 0.543292,0.103518 -0.09064,0.04585 -0.218466,-0.128045 -0.297804,-0.06461 -0.0096,0.0077 0.173294,0.687853 0.230269,0.945568 0.257535,1.335431 1.224627,1.827882 2.487668,2.147588 1.652323,0.201396 3.306938,-0.146939 4.944854,-0.343421 1.992707,-0.222369 4.003561,0.01106 5.998607,0.10936 2.206659,0.130718 4.419277,0.09346 6.62633,0.199883 0.547886,0.05443 1.072039,0.143372 1.572488,0.369678 0,0 -0.01558,-0.01254 -0.01558,-0.01254 v 0 c -0.654264,-0.388842 -1.204711,-0.632841 -1.986269,-0.672119 -2.204265,-0.09735 -4.413322,-0.06326 -6.616875,-0.193193 -2.000202,-0.101732 -4.016616,-0.337153 -6.014588,-0.109786 -1.633561,0.199982 -3.287307,0.548187 -4.934577,0.326009 -0.205115,-0.05514 -0.40708,-0.123735 -0.615346,-0.16542 -0.01635,-0.0033 -0.02164,0.04428 -0.03558,0.03514 -0.533633,-0.350414 -0.818396,-0.838978 -0.930635,-1.459595 -0.167473,-0.730935 -0.293539,-1.594493 -1.291918,-1.445736 -1.528781,0.492683 -3.031522,1.101399 -4.632415,1.3238 -0.323035,0.02442 -0.645266,0.06453 -0.969105,0.07328 -1.319512,0.03566 -2.616952,-0.214913 -3.900604,-0.488254 z" />
    <path
       style="fill:#000000;stroke-width:0.264583"
       id="path16"
       d="m 40.05554,66.346453 c 0.777854,0.381966 1.535761,0.836652 2.386079,1.04395 0.592553,0.144458 0.762291,0.116549 1.370362,0.133194 1.457758,-0.141316 2.742739,-0.874553 4.031019,-1.511324 0.429906,-0.2024 0.787945,-0.290205 1.240306,-0.146084 0.02106,0.0067 -0.07976,-0.01971 -0.06631,-0.0021 0.155183,0.202481 0.355039,0.366888 0.520673,0.560912 0.687303,0.982422 1.172872,1.28932 2.234407,1.828488 0.88493,0.343193 1.78772,0.02225 2.659771,-0.21063 1.000323,-0.298617 1.900865,-0.488754 2.930382,-0.258125 0.82155,0.245494 1.649955,0.472943 2.465779,0.738235 1.029624,0.350983 2.085195,0.727208 3.192354,0.642353 0.314045,-0.02408 0.622406,-0.09709 0.933609,-0.145635 1.660435,-0.326466 3.21941,-1.161055 4.932836,-1.222726 0.262861,-0.0095 0.525386,0.02668 0.788077,0.04002 0.931892,0.05705 1.663997,0.706123 2.523482,0.966542 0.525357,0.159181 0.874049,0.127283 1.415839,0.137078 0.62811,0.04975 1.236067,-0.183994 1.853538,-0.222706 0.140504,-0.0088 0.280929,0.01886 0.421394,0.02831 0,0 -0.01606,-0.01191 -0.01606,-0.01191 v 0 c -0.846034,-0.10795 -1.684181,-0.04697 -2.533359,0.0057 -0.596728,-0.0218 -0.864418,0.0092 -1.440262,-0.173413 -0.853104,-0.270579 -1.588863,-0.893453 -2.518153,-0.944764 -0.258482,-0.0079 -0.517271,-0.03864 -0.775444,-0.02371 -1.705131,0.09856 -3.255944,0.954018 -4.927012,1.227264 -0.323451,0.03738 -0.645078,0.0975 -0.970352,0.112133 -1.107887,0.04983 -2.158606,-0.31034 -3.192817,-0.656585 -0.809993,-0.254066 -1.630145,-0.476689 -2.443932,-0.716941 -1.015244,-0.215257 -1.997853,-0.03782 -2.989088,0.238345 -0.877007,0.217167 -1.790398,0.517115 -2.670538,0.166089 0.04791,0.185637 0.04288,0.109974 -0.334388,-0.157461 -0.352988,-0.250225 -0.608256,-0.5616 -0.876197,-0.895655 -0.08491,-0.105862 -0.170116,-0.211486 -0.255177,-0.317232 -0.767424,-0.900735 -1.22831,-1.313543 -2.376538,-0.765789 -1.317553,0.641935 -2.634247,1.362474 -4.136168,1.414129 -0.618019,-0.03319 -0.795565,-0.01072 -1.394811,-0.168677 -0.855001,-0.225383 -1.62214,-0.683247 -2.407142,-1.073301 z" />
    <path
       style="fill:#000000;stroke-width:0.264583"
       id="path17"
       d="m 31.283314,93.13483 c 1.036381,0.852363 2.243889,1.657723 3.611184,1.810845 0.308364,0.03453 0.620313,0.0182 0.930471,0.02731 2.110293,-0.190037 4.053631,-1.07197 6.063493,-1.666833 0.23554,-0.03621 0.468392,-0.114749 0.70662,-0.108622 0.854829,0.02199 1.466245,1.007534 1.980158,1.583066 0.95654,1.101735 2.298367,1.838156 3.773048,1.913437 0.316516,0.01617 0.633296,-0.02661 0.949947,-0.03991 2.035373,-0.245867 3.81032,-1.268812 5.606378,-2.175065 0.688155,-0.316138 1.437224,-0.769176 2.229106,-0.618885 0.276141,0.05241 0.597287,0.208241 0.849289,0.316291 1.365845,0.775039 2.883207,0.588172 4.357979,0.301773 1.38966,-0.293772 2.741739,-0.750051 4.135064,-1.027827 0.670049,-0.133582 1.028576,-0.159869 1.692931,-0.233471 0.865256,-0.136061 1.748716,0.174972 2.60608,0.02687 0.317743,-0.199874 0.150828,-0.09047 0.49907,-0.330763 0,0 -0.0168,-0.01085 -0.0168,-0.01085 v 0 c -0.41978,0.227081 -0.192111,0.158914 -0.686202,0.193516 -0.94767,-0.110512 -1.88893,-0.313067 -2.85163,-0.197608 -0.658487,0.07709 -1.027512,0.107276 -1.69119,0.242642 -1.390073,0.283525 -2.739827,0.741214 -4.128998,1.029245 -1.466604,0.279146 -2.958544,0.453258 -4.317058,-0.309711 -0.263588,-0.107788 -0.558749,-0.248634 -0.845928,-0.29215 -0.788813,-0.119526 -1.530006,0.351382 -2.214766,0.659178 -1.798707,0.914164 -3.587629,1.912971 -5.633726,2.130887 -1.140634,0.03389 -1.547076,0.0066 -2.628235,-0.370451 -0.08667,-0.03023 -0.178647,-0.05451 -0.253418,-0.107754 -0.363982,-0.259201 -0.655114,-0.585914 -0.964592,-0.903237 -0.722826,-0.802944 -1.59554,-2.038509 -2.808285,-2.033312 -0.237262,0.0011 -0.467865,0.07924 -0.701796,0.118866 -2.019986,0.607706 -3.988999,1.466207 -6.120048,1.607979 -1.479754,-0.06273 -0.386802,0.03559 -1.754727,-0.214987 -0.09523,-0.01744 -0.199983,0.0097 -0.289082,-0.02817 -0.595759,-0.253331 -1.097269,-0.698802 -1.598377,-1.09479 z" />
    <path
       style="fill:#000000;stroke-width:0.264583"
       id="path18"
       d="m 31.272842,100.67646 c -0.287732,0.11969 -1.587307,0.3538 -1.751925,0.56235 -0.02484,0.0315 -0.0059,0.08 -0.0089,0.12004 0.234635,0.14349 0.454861,0.31376 0.703905,0.43048 0.574641,0.2693 1.714566,0.20302 2.293451,0.19015 1.131914,-0.0252 1.81837,-0.0918 2.968149,-0.17649 3.109534,-0.2459 6.199399,-0.66586 9.294801,-1.03941 1.208606,-0.12773 2.423142,-0.3109 3.641178,-0.19951 0.351779,0.0322 1.016103,0.15146 1.366538,0.21083 1.379837,0.26243 2.697464,0.7577 4.055406,1.10634 1.266436,0.2862 2.518844,0.11591 3.769218,-0.14265 1.264748,-0.22804 2.460511,-0.6964 3.603598,-1.27193 0.205949,-0.10656 0.410964,-0.21494 0.617842,-0.31969 0.474136,-0.240072 1.036973,-0.571928 1.586394,-0.600958 0.225975,-0.01193 0.659212,0.135591 0.240511,0.0033 0.571828,0.611068 0.717717,1.460868 1.097529,2.180268 0.313119,0.59308 0.387787,0.61328 0.829146,1.08916 0.588335,0.37743 0.882888,0.6103 1.656009,0.80468 0.647861,0.16288 1.816097,-0.36658 2.38534,-0.65674 0.409202,-0.205 0.790612,-0.4357 1.127345,-0.74438 0,0 -0.01651,-0.0113 -0.01651,-0.0113 v 0 c -0.560787,0.007 -1.073449,0.19748 -1.571776,0.44928 -0.592384,0.22593 -1.190773,0.48484 -1.827768,0.55665 -0.202674,0.0228 -0.415322,-0.0436 -0.611767,0.0113 -0.05225,0.0146 0.04171,0.17775 -0.01032,0.1624 -0.199911,-0.0589 -0.356809,-0.2155 -0.535215,-0.32326 -0.442733,-0.46043 -0.526955,-0.48687 -0.838047,-1.06852 -0.388646,-0.72665 -0.531069,-1.58615 -1.092763,-2.218239 -0.307033,-0.183882 -0.593228,-0.408183 -0.921102,-0.551648 -0.647655,-0.28339 -2.054688,0.645245 -2.626307,0.901277 -1.147098,0.5709 -2.345164,1.02913 -3.613743,1.24526 -1.24596,0.25073 -2.495282,0.41107 -3.753781,0.11815 -1.350671,-0.35041 -2.664145,-0.84064 -4.040613,-1.08831 -0.389078,-0.0645 -0.975477,-0.16962 -1.367425,-0.20215 -1.216769,-0.10099 -2.42814,0.0853 -3.634531,0.21656 -3.091199,0.38061 -6.177606,0.8017 -9.28424,1.04336 -1.348052,0.0951 -2.705023,0.21935 -4.058298,0.15539 -0.246967,-0.0117 -0.494012,-0.0346 -0.737928,-0.075 -0.151789,-0.0252 -0.302064,-0.17698 -0.445408,-0.12108 -0.101997,0.0398 0.178393,0.12695 0.267592,0.19042 -0.01193,-0.0225 -0.04986,-0.0464 -0.03579,-0.0677 0.150675,-0.22794 1.423705,-0.44399 1.705232,-0.57247 z" />
    <path
       style="fill:#000000;stroke-width:0.264583"
       id="path19"
       d="m 32.048571,109.91697 c 1.013227,-0.1921 2.038789,-0.31151 3.066196,-0.39466 0.894556,-0.14626 1.793983,-0.23375 2.698639,-0.28158 1.591066,0.054 3.183524,0.0469 4.773157,-0.0416 1.063593,-0.0404 2.140873,-0.22509 3.205684,-0.0853 0.504227,0.0662 0.646607,0.14945 1.101693,0.32422 -0.02204,-1.3e-4 -0.08046,-0.0171 -0.06611,-2.7e-4 0.09193,0.10718 0.21522,0.18375 0.311769,0.28678 0.399703,0.42655 0.684181,0.94619 1.073417,1.38356 0.825815,0.77598 1.853925,1.42624 3.008953,1.52393 0.249957,0.0211 0.501697,-0.001 0.752549,-0.002 1.51503,-0.165 2.842538,-0.97413 4.239757,-1.51969 0.360323,-0.10396 0.72998,-0.28938 1.116166,-0.20727 0.08866,0.0188 0.31746,0.16282 0.253394,0.0987 -0.07221,-0.0723 -0.194601,-0.18151 -0.27981,-0.12513 -0.07317,0.0484 0.121952,0.12615 0.182925,0.18923 0.51303,0.55309 0.892001,1.2057 1.349859,1.80123 0.204457,0.22052 0.239427,0.30107 0.512162,0.43233 1.042924,0.50195 1.056857,0.44293 1.99386,-0.0488 0.544309,-0.32467 1.02524,-0.74357 1.581299,-1.04774 0,0 -0.01662,-0.0111 -0.01662,-0.0111 v 0 c -0.688044,0.19949 -1.364263,0.41454 -1.988415,0.77827 -0.274484,0.11192 -0.537202,0.23536 -0.829937,0.29459 -0.122283,0.0247 -0.294757,-0.0604 -0.372425,0.0373 -0.05673,0.0713 0.260466,0.17109 0.177212,0.20813 -0.12057,0.0536 -0.485404,-0.37573 -0.520771,-0.41277 -0.464053,-0.59596 -0.840827,-1.25403 -1.356416,-1.81025 -0.762378,-0.82227 -1.274072,-0.81842 -2.22509,-0.46005 -1.39274,0.55758 -2.729018,1.3598 -4.251772,1.48668 -1.248362,-0.0253 -1.926487,-0.12252 -2.802943,-0.98585 -0.7322,-0.80099 -1.161404,-1.78371 -2.250125,-2.20861 -1.444456,-0.51585 -2.764517,-0.27712 -4.261027,-0.17953 -1.609429,0.0873 -3.219945,0.083 -4.829559,0.001 -0.90493,0.0476 -1.803889,0.13855 -2.698805,0.28345 -1.016942,0.0894 -2.030794,0.2184 -3.030995,0.42626 z" />
    <path
       style="fill:#000000;stroke-width:0.264583"
       d="m 28.865107,116.52951 c -0.356359,-0.35636 -0.712718,-1.42543 -1.069078,-1.06908 -0.356359,0.35636 1.127964,0.56857 1.069078,1.06908 -0.149037,1.26684 -1.182229,2.27055 -1.603615,3.47451 -0.486815,1.3909 -0.706033,4.42775 -1.069079,5.87993 -0.184614,0.73845 -0.574766,1.41162 -0.801808,2.13815 -0.70962,2.27079 -0.933809,4.67166 -1.603617,6.94901 -0.214781,0.73025 -0.60568,1.40267 -0.801809,2.13816 -0.479725,1.79897 -0.771072,5.1877 1.069078,6.41447 1.60869,1.07245 5.465218,-1.14707 6.949009,-1.60362 0.602102,-0.18526 1.251715,-0.15118 1.870885,-0.26727 4.295314,-0.80537 0.550891,-0.33208 4.543583,-0.80181 2.131685,-0.25079 4.280075,-0.38208 6.414469,-0.53454 3.634602,-0.25961 7.322073,0.2424 10.958049,0 1.744845,-0.11632 2.69058,-0.53752 4.276312,-0.80181 0.731809,-0.12197 1.40457,-0.38782 2.138156,-0.53454 0.140711,-0.0281 1.208371,0.12798 1.33635,0 0.127463,-0.12746 -0.03768,-4.96858 0,-5.34539 0.0452,-0.45202 0.226139,-0.88394 0.267269,-1.33635 0.0484,-0.53234 -0.08128,-1.07529 0,-1.60361 0.09862,-0.64104 0.448818,-1.228 0.534537,-1.87089 0.188759,-1.41569 0.09012,-2.85912 0.267272,-4.27631 0.152061,-1.21651 1.504489,-8.38448 0.801806,-9.08717 -0.59886,-0.59886 -0.265541,0 -0.801806,0 0.06366,-0.65591 -0.348102,-0.0621 -0.53454,0 -0.93145,0.31049 -2.222011,-0.12315 -3.207235,0 -1.835287,0.22941 -3.556137,0.9785 -5.34539,1.33635 -2.185191,0.43704 -4.929235,0.89315 -7.216277,1.06908 -3.440944,0.26469 -6.78628,-0.64783 -10.156243,-1.06908 -1.414042,-0.17675 -6.085176,0.59656 -6.147197,0.53454 -0.063,-0.063 0.063,-0.20427 0,-0.26727 -0.063,-0.063 -0.18084,0.0216 -0.267271,0 -0.629219,-0.1573 -1.247257,-0.35636 -1.870888,-0.53454 z"
       id="path20" />
    <path
       style="fill:#000000;stroke-width:0.264583"
       id="path21"
       d="m 69.430984,128.23653 c 2.730352,0.005 5.454758,-0.20583 8.183239,-0.27989 1.759662,0.0145 3.576005,-0.0357 5.263828,0.55201 0.804955,0.28031 0.6835,0.11098 0.860028,0.54853 0.651057,0.82182 0.408122,0.38848 0.762283,1.28066 0,0 0.01807,0.009 0.01807,0.009 v 0 c -0.109405,-0.75634 -0.0058,-0.38921 -0.314968,-1.10018 -0.348123,-0.26106 -0.67442,-0.55409 -1.044366,-0.78317 -1.730536,-1.07159 -4.209023,-0.89154 -6.146483,-0.94102 -2.724702,0.0762 -5.445304,0.27752 -8.171894,0.28561 z" />
    <path
       style="fill:#000000;stroke-width:0.264583"
       id="path22"
       d="m 97.403273,123.06862 c -0.122835,0.33399 -0.409072,1.08202 -0.459814,1.38071 -0.243774,1.43501 -0.284252,3.0795 0.353386,4.42804 0.150489,0.31827 0.410551,0.57203 0.615825,0.85804 0.409422,0.21811 0.774989,0.55565 1.228262,0.65435 0.50867,0.11076 1.490298,-0.50051 1.827348,-0.72306 0.90058,-0.59463 1.68204,-1.36763 2.47462,-2.09333 0.20063,-0.17687 0.75538,-0.69069 1.0302,-0.85436 0.0973,-0.058 0.33031,-0.003 0.3194,-0.11591 -0.0121,-0.12503 -0.24753,-0.23008 -0.34523,-0.15112 -0.0935,0.0756 0.0852,0.2265 0.10529,0.34506 0.0297,0.17537 0.0289,0.35457 0.0433,0.53185 0.0943,1.10532 -0.0915,2.28857 0.21397,3.37206 0.0469,0.16618 0.13541,0.31766 0.20311,0.47648 0.41861,0.38808 0.55955,0.60422 1.31053,0.62189 0.31247,0.007 1.42965,-0.74708 1.54733,-0.8295 0.39202,-0.27455 1.75613,-1.35815 2.10393,-1.63211 0.93981,-0.71462 1.84761,-1.47008 2.81135,-2.153 0.46342,-0.3284 0.85407,-0.59879 1.40479,-0.72431 0.0567,0.0408 0.23757,0.10363 0.17025,0.12251 -0.1292,0.0362 -0.29178,-0.14019 -0.39828,-0.0585 -0.0906,0.0694 0.0256,0.22706 0.0297,0.34113 0.0198,0.56286 -0.0663,1.10715 -0.14965,1.66187 -0.11837,0.78255 -0.35296,1.5394 -0.47326,2.32166 -0.023,0.14988 -0.17343,0.92383 0.0265,1.13204 0.20403,0.21244 0.50949,0.29576 0.76423,0.44364 0.15049,-0.0689 0.31351,-0.11524 0.45148,-0.20667 0.78592,-0.52084 1.3847,-1.32527 2.00152,-2.02019 0.62673,-0.7061 0.85285,-0.95153 1.47882,-1.64123 0.66053,-0.62825 1.26712,-1.44506 2.1316,-1.81773 0.27441,-0.1183 0.41879,-0.10863 0.70285,-0.1317 0.38032,0.0619 0.23085,0.0151 0.58791,0.16346 0.0655,0.0272 -0.2292,-0.14162 -0.19804,-0.0779 0.0485,0.0993 0.18188,0.12747 0.26033,0.20531 0.23472,0.2329 0.20503,0.27069 0.31121,0.58613 0.0773,1.01104 -0.2913,1.99906 -0.61535,2.94228 -0.0356,0.10454 -0.42558,1.08185 -0.37819,1.1103 0.19517,0.11715 0.41846,0.17933 0.62769,0.269 0.84948,-0.41164 1.68283,-0.85691 2.52989,-1.27434 1.18388,-0.65542 2.39164,-1.26901 3.57191,-1.93036 0.57582,-0.32391 1.18891,-0.62009 1.84618,-0.7267 0.16979,-0.0217 0.31795,0.0404 0.40882,-0.12605 0.0521,-0.13473 0.0538,-0.28875 0.0224,-0.42813 -0.5853,-0.76459 -1.30544,-0.49126 -2.01132,-0.21206 -1.25737,0.52498 -2.49689,1.20223 -3.48665,2.15547 -0.20448,0.19693 -0.37586,0.42557 -0.56379,0.63836 -0.23369,0.41313 -0.74024,1.05981 -0.40645,1.578 0.0784,0.12167 0.20743,0.21186 0.3399,0.27016 1.07171,0.47167 0.82537,0.40174 1.73997,0.13639 2.02372,-0.98767 3.48984,-2.73792 4.84936,-4.48026 0.49902,-0.66157 0.93594,-1.36588 1.38785,-2.05949 0.0296,-0.0454 0.35865,-0.65208 0.50585,-0.67644 -0.16741,-0.0322 -0.34435,-0.16104 -0.50223,-0.0967 -0.11803,0.0481 -0.0886,0.23905 -0.13672,0.35707 -0.46235,1.13368 -1.01069,2.21643 -1.564,3.30792 -0.61326,1.24197 -1.33305,2.4329 -1.89035,3.70278 -0.22505,0.5128 -0.50913,1.23803 -0.57537,1.81953 -0.0193,0.16924 0.0236,0.33985 0.0354,0.50978 0.2194,0.11947 0.4086,0.34759 0.65818,0.35842 0.24927,0.0108 1.23034,-0.947 1.2305,-0.94715 0.97016,-0.93189 1.8594,-1.94296 2.7444,-2.95412 1.33966,-1.67539 2.73573,-3.3073 4.02888,-5.0193 0.55239,-0.72171 1.03791,-1.49247 1.6389,-2.17642 -0.12118,-0.17744 0.27088,0.003 0.20937,-0.0312 -0.66382,-0.37328 0.0845,0.1169 0.44191,0.18892 0.0711,0.0143 0.13613,-0.0503 0.20419,-0.0755 0.50601,-0.29614 0.91975,-0.70856 1.29025,-1.15782 0.5087,-0.80785 0.56103,-0.67947 -0.5003,-0.90258 -1.58141,0.99052 -2.82282,2.6772 -3.93944,4.13519 -0.89743,1.29841 -1.83652,2.59188 -2.53081,4.01655 -0.19779,0.40584 -0.55877,1.22083 -0.52832,1.74205 0.009,0.15936 0.12746,0.29271 0.19119,0.43907 0.34337,0.0944 0.67596,0.32053 1.03012,0.28324 0.4154,-0.0437 1.69564,-1.2445 1.82352,-1.37 1.34478,-1.31973 2.50811,-2.83222 3.6833,-4.29881 1.7785,-2.20036 3.44313,-4.49365 4.96775,-6.87687 0.0907,-0.11303 0.18137,-0.22605 0.27207,-0.33908 0.0443,-0.006 0.17702,-0.0113 0.13274,-0.0167 -0.17654,-0.0213 -0.3934,-0.1424 -0.53254,-0.0317 -0.15108,0.12025 -0.085,0.37683 -0.13534,0.56324 -0.22836,0.84553 -0.33392,1.11877 -0.62592,2.00431 -1.22906,3.41889 -3.00124,6.61051 -5.16779,9.52295 -0.56929,0.76529 -1.18301,1.49652 -1.77451,2.24479 -3.03932,3.59438 -6.61322,6.67048 -10.34622,9.51581 -0.22499,0.40059 -0.75896,0.50949 -1.03734,0.86272 -0.11166,0.14168 0.57112,0.25995 1.04077,0.19814 0.27775,-0.0366 0.51222,-0.22706 0.76824,-0.34078 0.3545,-0.15745 0.7089,-0.31514 1.06334,-0.47271 1.59511,-0.79085 3.24556,-1.50669 4.74489,-2.47745 2.37731,-1.53921 4.49543,-3.44626 6.63336,-5.2899 0.75907,-0.67488 1.51538,-1.35288 2.2772,-2.02465 1.87993,-1.6577 2.64644,-2.34934 4.6113,-3.89087 2.00157,-1.57033 4.08891,-3.00347 6.20259,-4.41577 1.42572,-0.9339 2.87303,-1.83462 4.30384,-2.76055 0.72326,-0.46806 1.39859,-0.8998 1.97736,-1.53709 0.0137,-0.10212 0.12693,-0.24942 0.0411,-0.30635 -0.8399,-0.5568 -1.27998,-0.46316 -2.16534,-0.19402 -1.0262,0.31196 -1.93254,0.74847 -2.81496,1.3685 -0.50418,0.35426 -0.94956,0.78559 -1.42434,1.17838 -0.44046,0.48614 -0.91457,0.94378 -1.32138,1.45841 -1.18647,1.50091 -2.4893,3.78327 -2.38056,5.78397 0.0166,0.3051 0.1469,0.59317 0.22034,0.88976 0.16148,0.19217 0.26809,0.44922 0.48443,0.57651 0.42116,0.24779 0.88667,0.46069 1.3722,0.51585 0.66972,0.0761 1.4557,-0.65051 1.8391,-1.0259 0.97678,-0.95636 0.9856,-1.16244 1.66232,-2.34388 0.16267,-0.43193 0.32534,-0.86385 0.48802,-1.29578 0,0 -0.0174,-0.01 -0.0174,-0.01 v 0 c -0.23224,0.39088 -0.46448,0.78176 -0.69672,1.17265 -0.86034,1.04264 -1.73354,2.22399 -2.99362,2.82484 -0.27328,0.13031 -0.60577,0.0967 -0.87994,0.22517 -0.0733,0.0343 -0.0144,0.26576 -0.0856,0.22717 -0.21878,-0.11871 -0.3378,-0.36568 -0.50669,-0.54852 -0.0799,-0.29052 -0.21818,-0.57102 -0.23979,-0.87156 -0.14199,-1.97515 1.16173,-4.27668 2.31272,-5.77008 0.39764,-0.51593 0.86295,-0.97598 1.29442,-1.46398 0.46302,-0.39605 0.89468,-0.83201 1.38905,-1.18815 0.87144,-0.62777 1.76625,-1.06184 2.79217,-1.35888 0.34079,-0.0987 0.71863,-0.0562 1.04732,-0.1897 0.0814,-0.0331 -0.0264,-0.29235 0.0545,-0.25799 0.0845,0.0359 -0.009,0.18344 -0.014,0.27517 -0.57316,0.65594 -1.20969,1.06063 -1.94039,1.54018 -1.42213,0.93333 -2.86509,1.83525 -4.28265,2.77567 -2.10833,1.41792 -4.18904,2.85924 -6.18704,4.43182 -1.96515,1.54673 -2.72723,2.23485 -4.61017,3.89439 -0.76187,0.67148 -1.51861,1.34878 -2.27793,2.02317 -2.14335,1.84186 -4.2643,3.73668 -6.6529,5.26424 -0.95908,0.61336 -2.38005,1.31428 -3.41919,1.82017 -0.44633,0.21729 -0.89754,0.4244 -1.34631,0.6366 -0.35715,0.15571 -0.71402,0.31208 -1.07146,0.46712 -0.25834,0.11206 -0.59812,0.11578 -0.77589,0.33417 -0.1029,0.1264 0.11075,0.31178 0.11749,0.47462 0.001,0.0326 -0.11757,0.0366 -0.0974,0.0109 0.27532,-0.35054 0.76756,-0.50133 1.01356,-0.87223 3.7304,-2.84738 7.25949,-5.9744 10.30115,-9.56037 0.59227,-0.74906 1.2062,-1.4815 1.77681,-2.24718 2.17198,-2.91448 3.9581,-6.10121 5.21331,-9.51582 0.29645,-0.88112 0.40364,-1.16 0.64274,-2.00035 0.0539,-0.18932 0.20758,-0.38406 0.148,-0.57166 -0.32149,-1.01242 -0.62967,-0.5902 -0.908,-0.17705 -1.42754,2.43653 -3.03409,4.76678 -4.81237,6.9614 -1.17511,1.46413 -2.33205,2.99371 -3.72824,4.26127 -0.33914,0.30789 -0.72107,0.56508 -1.0816,0.84762 -0.27562,0.14131 -0.59349,0.22029 -0.82687,0.42395 -0.077,0.0672 -0.007,0.20423 -0.01,0.30635 -0.0658,-0.13378 -0.18694,-0.25262 -0.19737,-0.40133 -0.0348,-0.49621 0.33264,-1.35098 0.51288,-1.72643 0.68456,-1.42596 1.62343,-2.71743 2.51367,-4.01648 0.77547,-1.03999 1.54525,-2.02964 2.45711,-2.95319 0.2458,-0.24896 0.73747,-0.72485 1.04642,-0.94751 0.12035,-0.0867 0.25661,-0.14894 0.38491,-0.22341 -0.0537,-0.12252 -0.12098,-0.23997 -0.16114,-0.36758 -0.015,-0.0478 0.0658,0.0898 0.0569,0.13911 -0.0385,0.21396 -0.19195,0.36827 -0.29641,0.55203 -0.36471,0.44193 -0.7704,0.85093 -1.27183,1.1373 -0.31561,0.10877 -0.1999,0.007 0.0562,0.2981 0.0315,0.0359 -0.0741,-0.0605 -0.1146,-0.0858 -0.35262,-0.22025 -0.48478,-0.4702 -0.78899,-0.25808 -0.55593,0.71848 -1.07531,1.46163 -1.60753,2.19758 -1.27909,1.71302 -2.61564,3.38308 -3.89118,5.09901 -0.86867,1.04608 -0.89588,1.11665 -1.82853,2.09158 -0.43724,0.45706 -1.07544,1.13511 -1.64263,1.48096 -0.17725,0.10808 -0.40804,0.1081 -0.58229,0.22095 -0.0368,0.0238 0.0528,0.0699 0.0791,0.1049 -0.003,-0.15996 -0.0341,-0.32192 -0.009,-0.47987 0.0917,-0.56938 0.39538,-1.27864 0.62201,-1.78103 0.57027,-1.26411 1.2693,-2.46356 1.88431,-3.70531 0.4547,-0.91255 0.90824,-1.81715 1.30844,-2.75483 0.0806,-0.18888 0.16335,-0.37686 0.2423,-0.56644 0.0502,-0.12054 0.18806,-0.24053 0.14513,-0.36385 -0.0693,-0.19908 -0.2883,-0.30762 -0.43245,-0.46144 -0.17746,0.12497 -0.39838,0.57467 -0.49183,0.72116 -0.44432,0.69647 -0.88044,1.39935 -1.37589,2.06141 -1.35367,1.74393 -2.83904,3.48002 -4.88962,4.41326 -0.23592,0.0564 -0.49904,0.0457 -0.70777,0.16928 -0.0699,0.0414 0.0915,0.23863 0.0104,0.24361 -0.13578,0.008 -0.26094,-0.11375 -0.34158,-0.22329 -0.34737,-0.47184 0.21129,-1.13517 0.41208,-1.50248 0.18663,-0.2095 0.35723,-0.43448 0.5599,-0.62851 0.9883,-0.94621 2.22195,-1.62032 3.47761,-2.13532 0.31581,-0.12011 0.50924,-0.21867 0.83446,-0.26357 0.0729,-0.0101 0.14762,-0.007 0.22063,0.002 0.0541,0.007 0.20006,0.0776 0.15757,0.0435 -0.11307,-0.0908 -0.69007,-0.42896 -0.37002,-0.2287 0.0812,0.13377 0.0534,0.29232 0.0938,0.44176 5.3e-4,0.15402 -0.20694,0.0791 -0.31166,0.12004 -0.63554,0.16187 -1.23929,0.44513 -1.80655,0.76994 -1.17896,0.66337 -2.38172,1.28664 -3.57402,1.92575 -0.87369,0.4082 -1.74155,0.83614 -2.64136,1.18366 0.11791,0.10773 0.22067,0.23486 0.35374,0.32318 0.0226,0.015 0.003,-0.0549 0.0117,-0.0806 0.0168,-0.0481 0.045,-0.0916 0.0647,-0.13864 0.11878,-0.28336 0.21096,-0.57751 0.31898,-0.86487 0.32518,-0.95718 0.69414,-1.95526 0.62754,-2.97979 -0.037,-0.11963 -0.0544,-0.24715 -0.1109,-0.35888 -0.25432,-0.50285 -1.2599,-1.05642 -1.83644,-1.08805 -0.29229,0.0336 -0.42317,0.0255 -0.70135,0.16065 -0.84345,0.40976 -1.42006,1.2404 -2.08423,1.86477 -0.66326,0.73373 -0.80834,0.89214 -1.47838,1.64211 -0.60659,0.67896 -1.21818,1.51706 -2.0298,1.97502 -0.1402,0.0791 -0.30696,0.0971 -0.46044,0.14564 0.0587,0.0488 0.15163,0.21888 0.17602,0.14654 0.0463,-0.13729 -0.0816,-0.28206 -0.0815,-0.42694 5.3e-4,-1.01644 0.4495,-1.99058 0.54737,-2.99398 0.0393,-0.26996 0.2694,-1.80274 0.11303,-2.03833 -0.30532,-0.46001 -0.39976,-0.47389 -0.74311,-0.61518 -0.51404,0.17572 -0.87383,0.47882 -1.30617,0.81015 -0.93464,0.71628 -1.85715,1.44769 -2.78857,2.16817 -0.46404,0.35475 -1.63666,1.2686 -2.15064,1.59587 -0.29722,0.18925 -0.60676,0.36149 -0.92818,0.50586 -0.22505,0.10109 -0.5019,0.0864 -0.70433,0.22743 -0.0672,0.0468 0.10896,0.25242 0.0275,0.24417 -0.14148,-0.0143 -0.21774,-0.18298 -0.32661,-0.27447 -0.0679,-0.15345 -0.15679,-0.29923 -0.20377,-0.46033 -0.31517,-1.08068 -0.12718,-2.26663 -0.22374,-3.37074 -0.0525,-0.70778 0.031,-1.10728 -0.84429,-1.33 -0.26044,-0.0663 -1.1525,0.91593 -1.31524,1.01659 -0.95754,0.88301 -2.16924,2.13976 -3.402606,2.59564 -0.278072,0.10278 -0.579716,0.13607 -0.875451,0.15678 -0.0914,0.006 -0.175906,-0.0513 -0.263858,-0.077 -0.206759,-0.27984 -0.468739,-0.52631 -0.620282,-0.83951 -0.64657,-1.33631 -0.568182,-2.94294 -0.305805,-4.36193 0.06027,-0.32594 0.335373,-1.01668 0.468836,-1.36707 z" />
    <path
       style="fill:#000000;stroke-width:0.264583"
       id="path23"
       d="m 96.713859,118.57755 c -0.0074,0.73682 -0.07897,1.88532 0.673169,2.33983 0.268639,0.16233 0.568357,0.26655 0.852538,0.39982 0.935482,-0.11393 1.42159,-0.70411 1.504058,-1.61139 -0.103487,-0.94289 -0.634058,-1.18129 -1.410552,-1.59123 -0.558477,-0.0775 -0.915408,0.50489 -1.193737,0.9112 -0.179358,0.35924 -0.47826,0.85096 -0.200551,1.2252 0.213288,0.12077 0.414962,0.26487 0.639866,0.36233 0.261339,0.11324 0.676687,-0.24077 0.825105,-0.41368 0,0 -0.01659,-0.0112 -0.01659,-0.0112 v 0 c -0.341265,0.0169 -0.69632,0.13221 -1.03573,0.11686 -0.07125,-0.003 -0.25224,-0.0985 -0.21,-0.041 0.0791,0.10762 0.22533,0.14343 0.337995,0.21515 -0.294005,-0.27884 0.08131,-0.84662 0.206944,-1.13231 0.264004,-0.38818 0.597828,-0.96483 1.138436,-0.84691 -0.118722,-0.0795 -0.235673,-0.16176 -0.356159,-0.23859 -0.06778,-0.0432 0.136745,0.0856 0.197964,0.13772 0.319696,0.27207 0.521597,0.62874 0.574458,1.04566 -0.05241,0.90095 -0.518678,1.46335 -1.452038,1.52312 0.04652,0.0575 0.201546,0.21287 0.139573,0.1725 -0.572466,-0.37297 -0.67273,-1.15832 -0.682763,-1.77631 -0.0027,-0.16727 0.0093,-0.33446 0.01402,-0.50168 z" />
    <path
       style="fill:#000000;stroke-width:0.264583"
       id="path24"
       d="m 97.001956,181.84274 c 0.07444,3.27772 -0.447429,6.54945 -1.259285,9.71908 -0.252145,0.98441 -0.571378,1.95042 -0.857067,2.92563 -1.29295,3.84396 -3.047323,7.53958 -5.177464,10.99145 -1.168154,1.89299 -1.615176,2.41234 -2.909637,4.13709 -1.026578,1.25024 -2.111388,2.48941 -3.465531,3.39915 -0.286223,0.1923 -0.978341,0.59884 -1.397092,0.62299 -0.119475,0.007 -0.225391,-0.0805 -0.338087,-0.12082 0.167764,0.001 0.376695,0.11401 0.503287,0.004 0.145188,-0.12626 0.06557,-0.38207 0.136988,-0.56074 0.09825,-0.24579 0.225177,-0.48086 0.368359,-0.70349 0.58193,-0.90483 1.357034,-1.58494 2.173327,-2.26675 2.361602,-1.71944 4.993756,-3.02309 7.557177,-4.40958 2.444758,-1.30972 4.828101,-2.72854 7.228258,-4.11694 1.256741,-0.6132 2.204421,-1.56671 3.083231,-2.62554 0.62765,-0.8208 1.29606,-1.62227 2.03927,-2.34204 0.19213,-0.11752 0.37182,-0.40034 0.61463,-0.42582 0.26562,0.0305 -0.41197,-0.25168 -0.30892,-0.18886 1.27359,0.77653 0.61161,0.29631 0.27278,0.15234 -0.10605,-0.0451 0.17217,0.15405 0.2478,0.24098 0.29127,0.34748 0.45015,0.75131 0.52642,1.1924 -0.0157,0.96208 -0.39856,1.90067 -0.78924,2.76643 -0.92969,1.8738 -1.95332,3.6974 -2.95445,5.53326 -0.87478,1.80823 -1.94625,3.53463 -2.697726,5.40122 -0.03242,0.25767 -0.125386,0.62308 0.647956,0.20388 0.18796,-0.10188 0.17853,-0.38884 0.27956,-0.57727 0.16327,-0.3045 0.33036,-0.60739 0.51292,-0.90074 0.61267,-0.98452 0.98687,-1.45499 1.6854,-2.40896 2.06665,-2.70952 4.54168,-5.05027 7.15012,-7.22657 0.90601,-0.6562 2.49202,-2.10131 3.70718,-2.10797 0.0988,-5.3e-4 0.19119,0.0504 0.28678,0.0756 -0.13621,-0.033 -0.2892,-0.17237 -0.40863,-0.099 -0.10091,0.062 0.0138,0.23884 -0.008,0.35516 -0.15948,0.83489 -0.87608,2.07844 -1.2697,2.81936 -1.00558,1.92603 -2.13279,3.80058 -2.88063,5.84912 -0.12614,0.3455 -0.22502,0.70035 -0.33752,1.05053 -0.21711,1.01501 -0.48998,2.26779 1.01676,2.38321 0.46565,0.0357 1.714,-1.14808 1.77317,-1.19651 0.45634,-0.45673 0.92748,-0.89915 1.36904,-1.37019 1.11576,-1.19025 2.40644,-2.74622 3.44129,-3.9764 2.20652,-2.62302 4.41327,-5.24552 6.60445,-7.88138 2.76053,-3.44709 5.63686,-6.84225 7.8966,-10.65334 1.27789,-2.15519 1.3627,-2.54204 2.32406,-4.77705 0.90814,-2.70062 1.69409,-5.69927 1.13822,-8.56793 -0.0541,-0.27902 -0.15808,-0.546 -0.23712,-0.819 -0.37991,-0.54381 -0.49133,-0.88665 -1.36221,-0.94759 -0.20167,-0.0141 -0.36788,0.19007 -0.50028,0.34284 -0.90733,1.04692 -1.26663,3.1753 -1.58783,4.38175 -1.13924,5.0314 -2.49391,10.013 -4.26316,14.86224 -1.33976,3.67208 -1.82204,4.63895 -3.37098,8.2081 -1.51756,3.24849 -3.09074,6.48038 -4.92009,9.5676 -0.58616,0.98921 -1.53565,2.52349 -2.35607,3.42401 -0.24763,0.27181 -0.56344,0.47259 -0.84516,0.70888 -0.18602,-0.0202 -0.46957,0.1043 -0.55807,-0.0606 -0.0804,-0.14974 0.266,-0.24207 0.3071,-0.40698 0.10033,-0.4025 0.0259,-0.83265 0.10346,-1.24015 0.34908,-1.8333 1.20565,-3.49593 2.02219,-5.15073 1.30176,-2.42244 2.90466,-4.69309 5.07986,-6.4078 0.28153,-0.22194 0.58476,-0.41489 0.87714,-0.62233 0.70527,-0.37515 2.09401,-1.23804 2.95855,-0.99843 0.10795,0.0299 0.19326,0.11332 0.28988,0.16998 -0.14345,0.0344 -0.36073,-0.0268 -0.43036,0.10326 -0.10235,0.19117 0.0294,0.43313 0.0271,0.64996 -0.003,0.25686 -0.0188,0.51364 -0.042,0.76946 -0.0674,0.74415 -0.18473,1.47459 -0.22848,2.22158 0.0179,0.63873 0.0443,1.36592 0.4496,1.90225 0.32835,0.43453 0.83844,0.61033 1.30176,0.87317 1.41032,0.34782 2.64004,-0.25558 3.79242,-1.01389 1.10591,-0.81656 2.06565,-1.81844 2.88659,-2.91777 0.55543,-0.72873 1.03797,-1.53687 1.72387,-2.15307 0.26584,-0.16553 0.59262,-0.43781 0.93274,-0.31063 0.0564,0.0211 0.21144,0.0948 0.15137,0.0984 -0.12328,0.007 -0.2403,-0.0572 -0.36045,-0.0858 0.31794,0.95573 0.17084,1.95475 -0.0395,2.9145 -0.5011,1.806 -1.33473,3.49332 -2.4535,4.9975 -0.34904,0.46929 -0.73515,0.90982 -1.10273,1.36473 -1.78602,2.11272 -3.87242,3.93104 -6.08536,5.57923 0.83309,0.14528 -0.68448,0.25146 -0.50762,0.35978 0.2024,0.12396 0.4338,0.25134 0.67081,0.23876 0.15308,-0.008 0.23339,-0.19897 0.35433,-0.29315 0.31087,-0.24207 1.08669,-0.80648 1.3646,-1.01018 2.09196,-1.46641 4.38555,-2.60488 6.64733,-3.77964 2.23837,-1.11093 4.46136,-2.23794 6.58006,-3.56499 1.43115,-0.93887 2.75101,-2.0505 3.98429,-3.23563 0.0281,-0.0386 1.23202,-1.19185 1.06912,-1.26068 -0.23143,-0.0978 -0.47689,-0.15835 -0.71533,-0.23753 -0.90792,0.51473 -1.73097,1.1754 -2.53638,1.8361 -1.47143,1.31357 -2.58695,2.97473 -3.56465,4.67408 -0.27959,0.57989 -0.9933,2.43323 -0.27617,2.98135 0.28754,0.21977 0.63257,0.3518 0.94886,0.5277 0.17576,-0.0154 0.35804,0.004 0.52728,-0.0462 0.85604,-0.25223 1.60905,-0.96813 2.27446,-1.51824 3.04252,-2.51536 -1.23237,0.96942 1.94145,-1.60953 1.72763,-1.39727 3.49986,-2.74295 5.3974,-3.90188 0.42408,-0.24355 0.84895,-0.48776 1.28995,-0.69996 0.13666,-0.0658 0.29022,-0.10994 0.41975,-0.18874 -0.25288,-0.13884 -0.48904,-0.31389 -0.75865,-0.41653 -0.0808,-0.0307 -0.17175,0.0194 -0.25756,0.0297 -0.11833,0.0141 -0.23689,0.0266 -0.35488,0.0434 -0.59261,0.0839 -1.14905,0.22237 -1.72382,0.38881 -1.61502,0.51413 -2.8079,1.65049 -3.79138,2.98501 -0.60648,1.00502 -1.02173,2.2335 -0.57507,3.38802 0.0699,0.18072 0.17983,0.34329 0.26975,0.51493 1.64419,1.58887 2.66713,0.6618 3.9497,-0.66087 1.2793,-1.44689 2.14716,-3.18006 2.884,-4.94986 0.14713,-0.36406 0.27249,-0.73645 0.41582,-1.10196 0.0386,-0.0985 0.0773,-0.19705 0.12242,-0.29273 0.0123,-0.0261 0.0758,-0.0605 0.049,-0.0713 -0.71069,-0.28534 -0.57109,-0.28663 -0.69643,0.24475 -0.27591,1.44289 -0.62931,2.8815 -0.56294,4.3579 0.0796,0.14706 0.10566,0.33989 0.23869,0.44119 0.29191,0.22227 0.62587,0.41681 0.98524,0.49077 0.32019,0.0659 1.13441,-0.47856 1.29708,-0.59252 0.7069,-0.4952 1.14771,-0.93767 1.79472,-1.52572 2.06554,-1.9399 3.95128,-4.05297 5.81161,-6.18609 0.55636,-0.62911 1.1046,-1.26594 1.67629,-1.88135 0.1031,-0.11099 0.20613,-0.22219 0.31394,-0.32861 0.0569,-0.0561 0.25876,-0.1472 0.17968,-0.15866 -0.24185,-0.035 -0.48591,0.0527 -0.72887,0.0791 -1.67997,3.3401 -3.71363,6.4878 -5.69901,9.65078 -3.55716,5.78708 -7.0206,11.66429 -9.8776,17.83623 -0.35197,0.76037 -0.66189,1.5395 -0.99283,2.30926 1.42091,-0.71549 -1.16999,1.78286 -0.51717,2.03687 1.11953,0.4356 1.51266,-1.03425 1.8478,-1.6003 0.4301,-0.72646 0.85213,-1.45767 1.28069,-2.18504 0.52768,-0.8956 1.0587,-1.78924 1.58805,-2.68386 2.47231,-4.07546 4.95325,-8.16206 7.84076,-11.96272 1.58987,-2.09265 2.20082,-2.71117 3.8934,-4.61484 1.33917,-1.46406 2.79783,-2.81763 4.39937,-3.9908 0.77207,-0.56556 1.52966,-1.02727 2.42152,-1.36018 0.12767,-0.005 0.42866,0.10293 0.383,-0.0164 -0.0568,-0.14859 -0.29665,-0.20104 -0.45006,-0.15889 -0.10385,0.0285 -0.0466,0.21269 -0.0953,0.30874 -0.0849,0.16732 -0.19671,0.31968 -0.30216,0.47484 -0.50555,0.74385 -0.46271,0.65137 -1.08174,1.38055 -1.14335,1.39675 -2.43533,2.73157 -3.23865,4.36927 -0.14763,0.30097 -0.25551,0.61986 -0.38326,0.9298 -0.26122,0.92364 -0.48688,2.27053 0.67253,2.7089 0.44674,0.16892 0.91512,0.34179 1.39271,0.33675 0.36829,-0.004 0.69586,-0.24166 1.0438,-0.36249 2.91861,-1.51673 5.17805,-3.9622 7.20224,-6.50217 0.43683,-0.6653 1.92871,-2.55035 1.54982,-3.46811 -0.16045,-0.38864 -1.15289,-0.38173 -1.48958,-0.43637 -0.27945,0.16733 -0.57587,0.30913 -0.83834,0.50201 -1.5446,1.13506 -2.88595,2.82053 -3.53057,4.63386 -0.15583,0.43835 -0.21501,0.90526 -0.32251,1.35788 0.0234,0.40467 -0.028,0.82071 0.0701,1.214 0.36279,1.45462 1.90611,2.26793 3.22276,2.6339 1.0128,0.28151 2.11344,-0.034 3.09454,-0.20493 0.55895,-0.18712 1.14776,-0.30153 1.67683,-0.56136 0.56059,-0.27529 2.64947,-1.80283 3.14518,-2.15777 0,0 -0.0168,-0.0108 -0.0168,-0.0108 v 0 c -0.54321,0.35734 -1.04791,0.78157 -1.62963,1.07204 -1.00791,0.50328 -2.65388,0.93168 -3.75604,1.24981 -2.02629,0.28771 -1.20718,0.29284 -3.14115,0.12125 -0.17259,-0.0153 -0.36636,0.0237 -0.51586,-0.0638 -0.64801,-0.37962 -1.16755,-0.98546 -1.36615,-1.72058 -0.10431,-0.3861 -0.0584,-0.79776 -0.0875,-1.19664 0.10333,-0.44871 0.15859,-0.91129 0.31,-1.34614 0.61203,-1.7578 1.96694,-3.50818 3.44089,-4.63706 0.24916,-0.19083 0.53263,-0.33208 0.79894,-0.49813 0.0168,-0.14256 -0.0211,-0.93477 0.42647,-0.20263 0.55229,0.90342 -0.91179,2.87992 -1.35822,3.53003 -2.0561,2.52702 -4.35805,4.96076 -7.3427,6.38037 -0.36084,0.10342 -0.73697,0.16369 -1.08254,0.31027 -0.11919,0.0506 -0.15232,0.28214 -0.28104,0.26813 -0.21993,-0.0239 -0.41225,-0.19295 -0.55793,-0.35944 -0.54327,-0.62091 -0.24947,-1.54881 -0.0918,-2.23355 0.12564,-0.30758 0.23135,-0.62408 0.37693,-0.92274 0.79665,-1.63426 2.07229,-2.97638 3.20933,-4.37112 0.49001,-0.58247 1.04949,-1.19211 1.38718,-1.88595 0.0569,-0.11687 0.18771,-0.26588 0.11395,-0.37289 -0.42305,-0.61382 -0.58869,-0.50598 -1.07151,-0.43665 -2.68109,1.15153 -4.75804,3.3747 -6.75477,5.42457 -0.61973,0.70438 -1.2611,1.3903 -1.8592,2.11314 -3.73107,4.50926 -6.77071,9.52989 -9.8471,14.49174 -0.97618,1.61102 -1.93315,3.23384 -2.92934,4.83257 -0.50821,0.8156 -1.2484,1.22803 -0.79018,2.17506 0.3018,0.62374 -0.9423,-5.42811 0.49993,-2.01774 0.32484,-0.77199 0.62718,-1.55385 0.97453,-2.31598 2.82006,-6.18759 6.28323,-12.06572 9.85379,-17.84205 2.00706,-3.15393 4.07232,-6.28805 5.75806,-9.6303 -0.13327,-0.24701 -0.20175,-0.54217 -0.39982,-0.74103 -0.0564,-0.0566 -0.11351,0.11273 -0.16588,0.17308 -0.098,0.1129 -0.18854,0.23203 -0.28485,0.34634 -0.53993,0.64086 -1.0996,1.26489 -1.64578,1.90035 -1.8495,2.13981 -3.73513,4.25044 -5.80668,6.18118 -0.68079,0.61086 -1.0636,1.00531 -1.81406,1.49902 -0.22935,0.15088 -0.48106,0.26465 -0.72159,0.39697 -0.19401,0.0417 -0.41206,0.0226 -0.58205,0.12502 -0.0552,0.0332 0.13471,0.21963 0.1036,0.1632 -0.076,-0.13784 -0.1589,-0.27176 -0.23835,-0.40765 -0.0119,-0.21627 -0.0406,-0.43227 -0.0357,-0.64882 0.0278,-1.24816 0.39893,-2.46651 0.59055,-3.69237 0.13423,-0.57169 0.22409,-0.42686 -0.45277,-0.88624 -0.0264,-0.0179 -0.0304,0.0563 -0.0425,0.0859 -0.0989,0.24146 -0.19702,0.52961 -0.28448,0.76807 -0.0778,0.21224 -0.15723,0.4239 -0.23585,0.63584 -0.72788,1.76611 -1.58903,3.4943 -2.87601,4.92682 -0.5582,0.56329 -1.12538,1.18117 -1.92967,1.38751 -0.17841,0.0458 -0.38519,-0.0429 -0.55135,0.0366 -0.0616,0.0295 0.15546,0.21271 0.0945,0.18192 -0.15086,-0.0762 -0.25717,-0.21934 -0.38576,-0.329 -0.0871,-0.16443 -0.19397,-0.31979 -0.26117,-0.49328 -0.43639,-1.12675 -0.0124,-2.33456 0.57201,-3.31493 0.97494,-1.32148 2.16152,-2.4409 3.76255,-2.94503 0.5646,-0.16161 1.11812,-0.30241 1.69884,-0.39225 0.11604,-0.0179 0.23267,-0.032 0.34932,-0.0454 0.0809,-0.009 0.27259,0.0531 0.24311,-0.0228 -0.0671,-0.17252 -0.26746,-0.25594 -0.4012,-0.38392 -0.50532,0.37036 -1.16327,0.52617 -1.65688,0.92001 -1.89287,1.16956 -3.6632,2.5192 -5.39622,3.9124 -0.33441,0.27078 -0.66883,0.54157 -1.00324,0.81235 -0.31729,0.26266 -0.63177,0.52875 -0.95186,0.78799 -0.66455,0.53822 -1.41889,1.25157 -2.28212,1.46402 -0.16567,0.0408 -0.34107,0.01 -0.51161,0.0147 0.0732,0.0595 0.2253,0.27248 0.21949,0.17838 -0.008,-0.13606 -0.1809,-0.21116 -0.22939,-0.33857 -0.325,-0.85404 0.14768,-1.81454 0.46375,-2.58059 0.96673,-1.69623 2.07876,-3.34772 3.53804,-4.66176 0.79517,-0.65867 1.60168,-1.33181 2.50725,-1.83335 -0.13714,-0.12341 -0.28253,-0.23823 -0.41142,-0.37023 -0.0113,-0.0116 0.0533,-0.0169 0.0484,-0.002 -0.1111,0.34739 -0.82142,0.92925 -1.02423,1.20722 -1.23011,1.18156 -2.53891,2.29756 -3.96817,3.23169 -2.11933,1.33143 -4.34466,2.46226 -6.59963,3.54627 -2.27793,1.15937 -4.57368,2.30843 -6.67575,3.77264 -0.2795,0.20229 -1.06442,0.76697 -1.37826,1.00554 -0.12409,0.0943 -0.3801,0.13653 -0.36545,0.2917 0.0888,0.9404 0.72571,0.24999 0.94156,0.0917 2.20331,-1.66188 4.2662,-3.50845 6.05737,-5.61475 0.36821,-0.45652 0.75476,-0.89884 1.10464,-1.36955 1.12367,-1.51176 1.96578,-3.20437 2.4504,-5.02551 0.20408,-0.97905 0.33321,-1.9845 0.0388,-2.96179 -0.76145,-0.63796 -0.87993,-0.81522 -1.71652,-0.22717 -0.68569,0.62153 -1.16806,1.43353 -1.72854,2.16314 -0.81199,1.09821 -1.77789,2.08745 -2.87772,2.89995 -1.16453,0.74851 -2.41865,1.33321 -3.82072,0.9143 0.32741,0.24629 -0.0681,-0.0445 -0.18941,-0.19725 -0.27688,-0.34856 -0.38314,-0.85505 -0.42809,-1.28469 -0.0201,-0.19156 -0.0174,-0.38483 -0.026,-0.57724 0.0403,-0.74858 0.1556,-1.47794 0.2257,-2.22304 0.007,-0.0697 0.0934,-1.30994 0.0293,-1.43972 -0.16127,-0.32621 -0.47965,-0.54738 -0.71948,-0.82107 -0.0987,-0.0454 -0.18951,-0.11499 -0.29605,-0.13611 -0.90262,-0.17889 -2.21292,0.65924 -2.94755,1.05611 -0.29173,0.21014 -0.59451,0.40571 -0.87518,0.63041 -2.16589,1.73397 -3.7535,4.02327 -5.06274,6.44566 -0.70975,1.4314 -1.0858,2.07367 -1.60763,3.57573 -0.17975,0.51741 -0.33997,1.04381 -0.45023,1.58034 -0.22511,1.09538 -0.3334,1.53816 0.65112,2.31319 0.15435,0.1215 0.39262,0.0142 0.58893,0.0213 0.28577,-0.23949 0.60775,-0.44146 0.85733,-0.71847 0.79805,-0.88579 1.76605,-2.48936 2.32615,-3.45193 1.80592,-3.10358 3.37105,-6.34154 4.88302,-9.59548 1.54525,-3.56075 2.03596,-4.54886 3.37461,-8.2113 1.771,-4.84535 3.13035,-9.8218 4.31162,-14.83999 0.32297,-1.15534 0.60124,-2.44018 1.13021,-3.54583 0.1303,-0.27234 0.31993,-0.51208 0.47989,-0.76812 0.15657,-0.0986 0.37239,-0.13834 0.46971,-0.29568 0.0478,-0.0772 -0.20425,-0.299 -0.14378,-0.23129 0.13506,0.15123 0.24604,0.32236 0.36907,0.48353 0.0866,0.27288 0.19791,0.5391 0.2597,0.81863 0.63464,2.87098 -0.16504,5.85659 -1.06242,8.57062 -0.95162,2.2204 -1.04757,2.63152 -2.31087,4.77382 -2.2491,3.81405 -5.1184,7.21235 -7.87723,10.6569 -2.19427,2.63464 -4.40385,5.25609 -6.62418,7.86883 -1.01065,1.18925 -2.36887,2.80295 -3.47012,3.95291 -0.44649,0.46624 -0.92508,0.90065 -1.38762,1.35097 -0.37057,0.28763 -0.71545,0.61182 -1.11171,0.86289 -0.2011,0.12742 -0.49821,0.0918 -0.66427,0.26239 -0.0703,0.0722 0.18195,0.35527 0.1583,0.25737 -0.035,-0.14491 -0.16513,-0.25684 -0.19352,-0.40318 -0.0979,-0.50446 0.0576,-1.01955 0.14843,-1.50496 0.33714,-1.05683 0.34312,-1.16313 0.80764,-2.22761 0.7001,-1.60434 1.60213,-3.1088 2.40274,-4.66274 0.40115,-0.76411 0.81182,-1.53365 1.1107,-2.3461 0.0188,-0.0512 0.27112,-0.76487 0.17229,-0.90342 -0.16999,-0.23832 -0.45899,-0.36346 -0.68849,-0.54519 -0.0952,-0.0145 -0.18961,-0.051 -0.28563,-0.0435 -1.19856,0.0937 -2.75462,1.50351 -3.66097,2.17296 -2.6024,2.18906 -5.07935,4.53242 -7.15695,7.23757 -0.71225,0.96447 -1.07187,1.41517 -1.7048,2.40447 -0.18682,0.29202 -0.35934,0.59306 -0.53028,0.89465 -0.104561,0.18447 -0.315453,0.35194 -0.295977,0.56308 0.01717,0.18623 0.464237,0.80464 0.400857,0.39256 0.74133,-1.86835 1.80439,-3.59802 2.68033,-5.40289 1.0009,-1.8375 2.02817,-3.6607 2.96304,-5.5334 0.3986,-0.87616 0.78076,-1.82019 0.81389,-2.79359 -0.0702,-0.44989 -0.22392,-0.86408 -0.51486,-1.2221 -0.25274,-0.32668 -0.47048,-0.40462 -0.88451,-0.63899 -0.12593,-0.0713 0.50016,0.29046 0.37043,0.22636 -0.78371,-0.38725 -0.42593,-0.42175 -0.75732,-0.37796 -0.24924,0.0771 -0.43382,0.29939 -0.63227,0.45495 -0.74364,0.72206 -1.4076,1.5295 -2.03987,2.34895 -0.90153,1.06097 -1.83625,1.95924 -3.101463,2.58848 -2.405211,1.38502 -4.79679,2.7948 -7.244935,4.10392 -2.568345,1.38894 -5.208,2.69133 -7.573436,4.41504 -1.004239,0.83806 -2.063694,1.75415 -2.579468,2.99757 -0.07782,0.18761 -0.232748,0.39986 -0.157662,0.58858 0.122555,0.30803 0.45362,0.48356 0.680429,0.72533 0.118875,0.0279 0.23531,0.0976 0.356619,0.0837 0.425103,-0.0488 1.096941,-0.44791 1.395423,-0.65337 1.345509,-0.92619 2.420903,-2.17643 3.441279,-3.43471 1.291164,-1.73749 1.727671,-2.25027 2.897002,-4.15313 2.126149,-3.45989 3.885652,-7.15766 5.180465,-11.00649 0.285954,-0.97668 0.60456,-1.94438 0.857858,-2.93003 0.814356,-3.1689 1.358369,-6.43964 1.289805,-9.71827 z" />
    <path
       style="fill:#000000;stroke-width:0.264583"
       id="path25"
       d="m 110.33499,178.97385 c 0.85716,-1.03115 1.4596,-2.23311 1.63429,-3.57577 0.0482,-0.3701 0.0379,-0.74548 0.0568,-1.11822 -0.0644,-0.43778 -0.0918,-0.88261 -0.19314,-1.31333 -0.87091,-3.70075 -3.61174,-7.19026 -5.81,-10.19469 -2.64026,-3.55216 -5.81159,-6.66936 -9.479667,-9.15567 -2.351011,-1.59357 -4.059928,-2.39347 -6.62178,-3.74515 -4.89577,-2.39715 -10.110242,-3.99784 -15.252554,-5.75605 -1.192231,-0.44667 -2.439204,-0.83626 -3.521914,-1.52845 -0.02125,-0.0136 0.03,-0.0556 0.01331,-0.0745 -1.81111,-2.05187 0.603488,0.88108 -0.862963,-0.92319 -0.196106,-0.0949 -0.276116,-0.8136 -0.144457,-0.30216 0,0 0.01834,0.008 0.01834,0.008 v 0 c -0.116629,-0.13335 -0.210892,-0.29021 -0.349885,-0.40005 -0.382508,-0.30228 -0.272442,0.42064 -0.161375,0.41833 0.587904,0.93077 1.094944,1.16797 2.12199,1.78482 1.097076,0.65891 2.3124,1.08048 3.512841,1.5041 5.127554,1.74121 10.324703,3.33313 15.199932,5.72901 2.363038,1.18738 3.043375,1.44536 5.369901,3.01563 3.671969,2.47837 6.850881,5.58753 9.492581,9.13752 2.19917,3.00363 4.91943,6.46986 5.81891,10.16024 0.10418,0.42744 0.13686,0.8692 0.2053,1.3038 -0.0115,0.37222 0.006,0.74643 -0.0344,1.11665 -0.14458,1.33279 -0.69726,2.559 -1.53892,3.59106 z" />
    <path
       style="fill:#000000;stroke-width:0.264583"
       d="m 68.153729,149.40366 c 1.206217,-1.15534 3.109701,-1.9756 4.009043,-3.4745 0.144947,-0.24158 0.122322,-0.56023 0.267269,-0.80181 0.473205,-0.78867 1.917602,-2.10637 2.672697,-2.67269 0.988131,-0.7411 1.617786,-1.70216 2.672693,-2.40543 0.08909,-0.0891 0.178181,-0.17818 0.267269,-0.26727 0,-0.0891 -0.06299,-0.20427 0,-0.26727 0.063,-0.063 0.204274,0.063 0.267272,0 0.06299,-0.063 -0.03984,-0.18758 0,-0.26727 0.187648,-0.3753 0.955288,-0.68802 1.069078,-0.80181 0.06299,-0.063 -0.03984,-0.18758 0,-0.26726 0.292314,-0.58464 0.872421,-0.7312 0.534537,-1.06908 -0.07075,-0.0708 -0.691755,0 -0.801809,0 -0.673171,0 -3.027584,-0.49073 -3.474503,-0.26727 -0.112691,0.0563 -0.141277,0.26727 -0.267269,0.26727 -0.125992,0 -0.15458,-0.21093 -0.267268,-0.26727 -0.303668,-0.15184 -0.687152,0.0573 -1.33635,-0.26727 -0.285086,-0.14255 -0.783989,0.14254 -1.069078,0 -0.112691,-0.0563 -0.147743,-0.22743 -0.267269,-0.26727 -0.391417,-0.13047 -0.935707,0.10016 -1.336347,0 -0.193265,-0.0483 -0.335327,-0.26727 -0.53454,-0.26727 -0.125992,0 -0.141277,0.26727 -0.267269,0.26727 -0.125992,0 -0.15458,-0.21093 -0.267269,-0.26727 -0.258752,-0.12938 -0.507402,0.0136 -1.069078,-0.26727 -0.722326,-0.36116 -3.387458,0.0871 -3.741774,-0.26727 -0.063,-0.063 0.08909,-0.26727 0,-0.26727 -0.08909,0 0.08909,0.26727 0,0.26727 -0.125992,0 -0.141277,-0.26727 -0.267269,-0.26727 -0.08909,0 -0.063,0.20427 0,0.26727 0.125992,0.12599 0.408546,-0.12599 0.534537,0 0.063,0.063 -0.06299,0.20427 0,0.26727 0.08909,0.0891 0.712719,0.17818 0.80181,0.26727 0.125992,0.12599 -0.125992,0.40854 0,0.53454 0.063,0.063 0.204274,-0.063 0.267269,0 0.125991,0.12599 -0.07968,0.37517 0,0.53454 0.05634,0.11269 0.267271,0.14127 0.267271,0.26727 0,0.12599 -0.267271,0.14127 -0.267271,0.26726 0,0.126 0.210925,0.15458 0.267271,0.26727 0.128257,0.25652 -0.08556,0.81241 0,1.06908 0.136075,0.40823 0.267269,0.31198 0.267269,0.80181 0,0.36227 0.150664,1.03502 0,1.33635 -0.05635,0.11269 -0.210923,0.15458 -0.267269,0.26727 -0.07968,0.15937 0.125992,0.40855 0,0.53454 -0.063,0.063 -0.204274,-0.063 -0.267271,0 -0.125992,0.12599 0,0.35636 0,0.53454 0,0.58262 -0.254911,1.8956 0,2.40542 0.208393,0.41679 0.540911,1.60999 0.801809,1.87089 0.552989,0.55299 -0.02162,-0.84504 0.53454,0.26727 0.07968,0.15937 -0.02209,0.35773 0,0.53454 0.07814,0.62509 0.178178,1.24726 0.267269,1.87088 z"
       id="path26" />
  </g>
</svg>
