<?xml version="1.0" encoding="UTF-8" standalone="no"?>
<svg
   width="210mm"
   height="297mm"
   viewBox="0 0 210 297"
   version="1.1"
   id="svg8"
   inkscape:version="1.4.3 (0d15f75042, 2025-12-25)"
   sodipodi:docname="new.svg"
   xmlns:inkscape="http://www.inkscape.org/namespaces/inkscape"
   xmlns:sodipodi="http://sodipodi.sourceforge.net/DTD/sodipodi-0.dtd"
   xmlns="http://www.w3.org/2000/svg"
   xmlns:svg="http://www.w3.org/2000/svg"
   xmlns:rdf="http://www.w3.org/1999/02/22-rdf-syntax-ns#"
   xmlns:cc="http://creativecommons.org/ns#"
   xmlns:dc="http://purl.org/dc/elements/1.1/">
  <defs
     id="defs2" />
  <sodipodi:namedview
     id="base"
     pagecolor="#ffffff"
     bordercolor="#666666"
     borderopacity="1.0"
     inkscape:pageopacity="0.0"
     inkscape:pageshadow="2"
     inkscape:zoom="0.98994949"
     inkscape:cx="275.26657"
     inkscape:cy="529.82501"
     inkscape:document-units="mm"
     inkscape:current-layer="layer1"
     inkscape:document-rotation="0"
     showgrid="false"
     inkscape:window-width="2546"
     inkscape:window-height="1402"
     inkscape:window-x="0"
     inkscape:window-y="0"
     inkscape:window-maximized="1"
     inkscape:showpageshadow="2"
     inkscape:pagecheckerboard="0"
     inkscape:deskcolor="#d1d1d1" />
  <metadata
     id="metadata5">
    <rdf:RDF>
      <cc:Work
         rdf:about="">
        <dc:format>image/svg+xml</dc:format>
        <dc:type
           rdf:resource="http://purl.org/dc/dcmitype/StillImage" />
        <dc:title />
      </cc:Work>
    </rdf:RDF>
  </metadata>
  <g
     inkscape:label="Layer 1"
     inkscape:groupmode="layer"
     id="layer1">
    <path
       style="fill:#000000;stroke-width:0.264583"
       id="path1"
       d="m 28.928089,53.462769 c 1.639646,1.289092 3.453429,2.305745 5.267494,3.322338 2.291712,1.311241 4.80505,2.083755 7.367603,2.650863 2.575616,0.465415 5.209948,0.671642 7.821091,0.410798 0.510244,-0.05097 1.016093,-0.139071 1.524138,-0.208606 2.39323,-0.431342 4.67056,-1.356865 6.663354,-2.757186 0.33927,-0.2384 0.653074,-0.51113 0.979609,-0.766696 1.532565,-1.38671 2.300007,-2.68415 2.93646,-4.614357 0.190939,-0.83615 0.481888,-1.718218 0.414313,-2.588781 -0.117649,-0.350409 -0.153349,-0.519798 -0.997556,-0.287113 -0.176828,0.04874 -0.09862,0.353338 -0.148193,0.529934 -0.322945,1.150496 -0.619593,2.304304 -0.90696,3.464361 -1.205653,5.148387 -2.692029,10.214012 -4.343013,15.235325 -2.239367,6.320475 -4.858636,12.521687 -7.945583,18.47783 -0.63831,1.231591 -1.323867,2.438117 -1.985799,3.657174 -2.514547,4.44154 -5.345469,8.704456 -8.457808,12.749507 -1.535194,1.99526 -2.551133,3.17987 -4.147598,5.09774 -2.449065,2.76907 -4.882287,5.62355 -7.859337,7.85056 -0.336663,0.25185 -0.692994,0.47626 -1.039491,0.7144 -0.672851,0.39716 -1.359632,0.82041 -2.119332,1.03658 -0.150013,0.0427 -0.304296,0.0793 -0.460168,0.0847 -0.128286,0.004 -0.444776,-0.1667 -0.381114,-0.0552 0.08982,0.15727 0.324718,0.16051 0.487077,0.24076 -1.455389,-1.49479 -1.513205,-3.72266 -1.564801,-5.68383 0.08661,-2.20959 0.851903,-4.23659 2.27573,-5.93538 1.00466,-1.19867 1.499008,-1.48594 2.726184,-2.45679 0.572405,-0.35105 1.126798,-0.73331 1.717216,-1.05314 1.34193,-0.72691 2.814045,-1.3106 4.242432,-1.83192 2.772228,-1.011788 5.610844,-1.80594 8.449376,-2.604122 5.506075,-1.488429 11.071889,-2.760461 16.521274,-4.45512 1.024133,-0.318487 2.037567,-0.670409 3.05635,-1.005612 3.39806,-1.217248 6.730349,-2.641301 9.854494,-4.458473 1.595771,-0.928187 1.850064,-1.153578 3.301846,-2.180963 1.548027,-1.131636 3.015695,-2.378514 4.218464,-3.87981 0.692333,-0.864166 0.764892,-1.041768 1.342485,-1.971172 1.194792,-2.073225 1.652331,-4.300429 1.912199,-6.646617 0.244983,-2.21493 0.156674,-4.426307 -0.203631,-6.619729 -0.238733,-1.161185 -0.534609,-2.309895 -0.826979,-3.458456 -0.08486,-0.333349 -0.170402,-0.666536 -0.259194,-0.99886 -0.06723,-0.251648 -0.0922,-0.520108 -0.208872,-0.752994 -0.07172,-0.143163 -0.225941,-0.226957 -0.33891,-0.340437 -0.434764,-0.145796 -0.953265,-0.73244 -1.304293,-0.437388 -0.625091,0.525418 -0.622721,1.510729 -0.890455,2.282166 -0.38013,1.095278 -0.759751,2.193251 -1.052155,3.315137 -0.66353,2.545818 -1.997583,9.032272 -2.410053,11.483771 -0.361273,2.147208 -0.615122,4.31111 -0.922684,6.466665 -0.375362,3.43638 -0.910183,7.684619 -1.039953,11.185094 -0.08837,2.383711 0.01879,5.6075 0.282467,8.03552 0.243893,2.24578 0.446156,2.83209 0.942133,4.88393 0.144299,0.43013 0.644303,2.09711 0.99585,2.58467 0.505293,0.70079 1.846117,1.18407 2.531104,1.26863 0.702268,0.0867 2.207689,-0.68154 2.728394,-0.90755 4.554493,-2.4954 8.151051,-6.31578 11.578341,-10.14313 2.304317,-2.770537 4.414256,-5.718969 6.003759,-8.962486 0.778922,-1.589457 0.899527,-2.034804 1.485582,-3.629382 0.608648,-1.878996 1.050274,-3.843499 0.861801,-5.8265 -0.112046,-0.626772 -0.39289,-0.824582 -1.235538,-0.848175 -0.130932,-0.0037 -0.760913,1.479553 -0.801825,1.577335 -1.007147,2.594644 -1.58813,5.327552 -2.128867,8.049844 -0.448114,2.556542 -0.744365,5.160304 -0.554789,7.758615 0.03154,0.432224 0.09832,0.861149 0.147476,1.291729 0.28883,1.44738 0.664459,2.97766 1.631175,4.14272 0.127799,0.15402 0.280937,0.28513 0.421407,0.42769 0.999144,0.76296 2.135497,1.40898 3.322402,0.73418 0.188228,-0.10701 0.354428,-0.24881 0.531641,-0.37321 1.357261,-1.27151 2.105491,-3.05233 2.536871,-4.83487 0.13822,-0.57114 0.2248,-1.153556 0.33719,-1.730332 0.68446,-5.372441 0.0772,-10.798249 -0.64517,-16.13255 -0.37307,-2.835011 -1.06433,-5.599737 -1.934648,-8.317246 0,0 -0.859861,-0.404717 -0.859861,-0.404717 v 0 c 0.889608,2.715786 1.598543,5.480259 1.977159,8.319357 0.72983,5.319654 1.33038,10.73187 0.62805,16.089378 -0.11336,0.572736 -0.20121,1.151112 -0.34007,1.7182 -0.43083,1.75943 -1.172688,3.52117 -2.525997,4.76551 -0.491096,0.33351 -0.9187,0.62781 -1.539341,0.61477 -0.165095,-0.003 -0.4109,-0.21987 -0.489715,-0.0748 -0.07549,0.13898 0.525066,0.29836 0.366925,0.30083 -0.182457,0.003 -0.305533,-0.19961 -0.458301,-0.29941 -0.14329,-0.13788 -0.299596,-0.2634 -0.429874,-0.41363 -0.988195,-1.13954 -1.368232,-2.67047 -1.669301,-4.10601 -0.05156,-0.42895 -0.121306,-0.85611 -0.154678,-1.286855 -0.200777,-2.591618 0.09422,-5.191104 0.539043,-7.741706 0.539563,-2.714053 1.122117,-5.439039 2.142268,-8.020187 0.225923,-0.530233 0.301488,-0.768104 0.584197,-1.236576 0.0598,-0.0991 0.264272,-0.182848 0.203505,-0.28136 -0.159629,-0.258781 -0.487315,-0.364188 -0.7214,-0.558234 -0.126706,-0.105034 0.887204,0.522311 0.23881,0.432144 0.224764,1.970577 -0.218895,3.933119 -0.80677,5.806017 -0.573373,1.588582 -0.694589,2.045075 -1.462677,3.627638 -1.57397,3.243001 -3.680111,6.18581 -5.977467,8.951909 -3.424362,3.81893 -7.024502,7.62864 -11.592623,10.08598 -0.488977,0.20542 -0.977951,0.41084 -1.466927,0.61627 -0.414832,0.0782 -0.851008,0.0819 -1.244497,0.23476 -0.101047,0.0393 -0.0254,0.33213 -0.128526,0.29874 -1.217872,-0.39431 -1.352691,-2.24244 -1.782014,-3.16434 -0.517237,-2.05298 -0.726848,-2.63954 -0.988618,-4.88973 -0.74793,-6.429254 -0.117703,-12.852684 0.669178,-19.245356 0.310095,-2.152626 0.564965,-4.313933 0.930286,-6.457878 0.491477,-2.884326 1.685073,-8.513202 2.478225,-11.435466 0.302593,-1.114873 0.687107,-2.206639 1.078135,-3.293655 0.263379,-0.732171 0.747993,-1.394357 0.883859,-2.160506 0.03802,-0.214397 -0.273759,-0.33868 -0.410636,-0.508021 0.123317,0.09782 0.293084,0.156099 0.369951,0.293457 0.127804,0.228378 0.147341,0.502277 0.216583,0.754658 0.09128,0.332692 0.178927,0.666382 0.26494,1.000472 0.294606,1.144307 0.582639,2.291249 0.823704,3.4482 0.368802,2.185723 0.465502,4.38952 0.2208,6.598648 -0.255654,2.332405 -0.703982,4.547433 -1.891522,6.608937 -0.574591,0.926499 -0.643237,1.09791 -1.332479,1.959755 -1.195575,1.494978 -2.653692,2.739187 -4.191045,3.869582 -1.449075,1.031782 -1.687928,1.24773 -3.282998,2.180285 -3.112084,1.819479 -6.434761,3.242374 -9.823039,4.459198 -1.016956,0.335291 -2.028579,0.68721 -3.050866,1.005877 -5.449043,1.698572 -11.017094,2.965516 -16.524591,4.451453 -2.846599,0.796301 -5.693241,1.587672 -8.473491,2.5987 -1.455716,0.52937 -2.898378,1.0983 -4.262835,1.83832 -0.593769,0.32203 -1.151269,0.70686 -1.726904,1.06028 -1.230859,0.97613 -1.735645,1.27285 -2.74476,2.47661 -1.435683,1.71262 -2.212445,3.75871 -2.311149,5.98569 0.03981,1.9877 0.09727,4.19331 1.496806,5.75823 0.408538,0.23523 0.796212,0.51114 1.225616,0.70569 0.691875,0.31346 2.442817,-0.832 2.978133,-1.1386 0.345155,-0.24169 0.700058,-0.47002 1.035465,-0.72507 2.960624,-2.25128 5.384818,-5.11376 7.826756,-7.89225 1.609812,-1.94267 2.588331,-3.0877 4.138252,-5.1089 3.108077,-4.053149 5.938401,-8.320746 8.449802,-12.768662 0.66257,-1.219993 1.34892,-2.427367 1.987707,-3.659978 3.0881,-5.958848 5.710531,-12.161856 7.971546,-18.477463 1.663208,-5.015095 3.165258,-10.073762 4.396528,-15.213793 0.294169,-1.155014 0.596257,-2.30347 0.932302,-3.44687 0.0508,-0.172823 0.243472,-0.362394 0.153144,-0.518244 -0.391198,-0.674955 -1.189789,-0.607402 -0.761821,-0.636654 0.131099,0.84609 -0.224633,1.742609 -0.379293,2.559209 -0.622065,1.915475 -1.377,3.196944 -2.894359,4.572688 -0.324138,0.253312 -0.635738,0.523536 -0.972413,0.759933 -1.983721,1.39287 -4.251679,2.306431 -6.634887,2.726875 -0.506219,0.06804 -1.010277,0.154718 -1.518653,0.204121 -2.608032,0.253437 -5.238718,0.03875 -7.808804,-0.435239 -2.560685,-0.577406 -5.069498,-1.361213 -7.358311,-2.67784 -0.481055,-0.19617 -0.215117,-0.07765 -1.07596,-0.607349 -0.871069,-0.535995 -1.697508,-1.136867 -2.520116,-1.743525 z" />
    <path
       style="fill:#000000;stroke-width:0.264583"
       id="path2"
       d="m 94.885096,66.609935 c 0.644806,0.869464 1.375526,1.662383 2.298787,2.23383 1.261962,0.691645 2.009384,1.256522 3.208347,0.260636 0.88756,-1.043051 0.79074,-2.123197 0.46957,-3.370567 -0.37222,-1.283015 -1.220263,-2.266307 -2.257107,-3.066524 -0.669406,-0.37379 -1.836094,-1.421989 -2.632667,-0.801507 -0.03374,0.137028 -0.09699,0.225798 0.07278,0.332269 1.170995,0.734385 1.430081,0.704014 2.674691,0.816168 0,0 -0.789501,-0.584914 -0.789501,-0.584914 v 0 c -0.376475,-0.03639 -0.732403,-0.06233 -1.10472,-0.131205 -0.142631,-0.02638 -0.487537,-0.231518 -0.423135,-0.101549 0.100463,0.202739 0.377908,0.249158 0.561682,0.381151 0.06344,0.04557 -0.279543,-0.106847 -0.151276,-0.178957 0.194964,-0.131847 0.394526,-0.154016 0.629275,-0.111429 0.106595,0.01934 0.376317,0.177885 0.312118,0.09062 -0.116057,-0.157755 -0.361286,-0.17843 -0.487119,-0.328502 -0.106029,-0.126447 0.283207,0.169463 0.424812,0.254196 1.041932,0.775878 1.904693,1.738908 2.286897,3.008495 0.32589,1.20286 0.44852,2.260092 -0.422804,3.267864 -0.339381,0.27088 -0.628708,0.451247 -1.07864,0.469677 -0.135157,0.0055 -0.272047,-0.0021 -0.404852,-0.02792 -0.13729,-0.02658 -0.423693,-0.265575 -0.399566,-0.127833 0.03033,0.173191 0.287033,0.203158 0.430549,0.304736 -0.933276,-0.548116 -1.669413,-1.327263 -2.308768,-2.196867 z" />
    <text
       xml:space="preserve"
       style="font-size:11.2889px;writing-mode:lr-tb;direction:ltr;fill:#000000;stroke-width:0.264583"
       x="40.624966"
       y="144.05827"
       id="text2"><tspan
         sodipodi:role="line"
         id="tspan2"
         style="stroke-width:0.264583"
         x="40.624966"
         y="144.05827">\LaTeX may be working</tspan></text>
  </g>
</svg>
